<svg width="303" height="62" viewBox="0 0 303 62" fill="none" xmlns="http://www.w3.org/2000/svg">
<path d="M129.172 12.2007C126.71 9.99117 123.206 8.82786 119.149 8.83302L100.772 8.85657L100.828 52.9253L106.176 52.9185L106.154 35.9548L118.692 35.9387C122.994 35.9333 126.558 34.7609 129.075 32.4835C131.592 30.2062 133.063 26.8853 133.057 22.3371C133.113 17.7888 131.634 14.4102 129.172 12.2007ZM126.364 27.2626C125.567 28.6159 124.339 29.6623 122.742 30.2175C121.697 30.5876 120.468 30.7736 119.116 30.7753L106.27 30.7918L106.249 13.8895L119.094 13.873C121.614 13.8698 123.705 14.6047 125.243 16.0778C126.72 17.5511 127.584 19.7012 127.587 22.3441C127.528 24.2495 127.162 25.9095 126.364 27.2626Z" fill="#F3F3F2"/>
<path d="M296.769 52.6731L302.608 52.6656L295.762 34.297L296.315 34.0504C298.342 33.003 299.999 31.4642 301.103 29.496C302.207 27.5278 302.88 25.0684 302.876 22.1182C302.87 17.57 301.391 14.2529 298.93 11.9819C296.468 9.77242 292.964 8.60911 288.907 8.61427L270.53 8.63781L270.586 52.7066L275.933 52.6997L275.911 35.736L288.45 35.72L288.696 35.7197C289.126 35.7191 289.556 35.7186 289.986 35.6565L290.478 35.5945L296.769 52.6731ZM288.751 30.6797L275.905 30.6961L275.883 13.7323L288.729 13.7159C291.249 13.7127 293.34 14.4476 294.878 15.9207C296.355 17.3939 297.218 19.544 297.222 22.1869C297.224 24.0923 296.857 25.7523 296.06 27.1669C295.263 28.5201 294.035 29.5666 292.437 30.1218C291.27 30.492 290.103 30.6779 288.751 30.6797Z" fill="#F3F3F2"/>
<path d="M173.117 13.9875C169.854 10.0581 165.242 7.91281 159.649 7.91994C154.117 7.92701 149.449 10.1456 146.196 14.0834C142.882 18.0213 140.984 23.7398 140.993 30.6236C141.002 37.5689 142.914 43.221 146.177 47.089C149.44 51.0184 154.052 53.1637 159.583 53.1567C165.177 53.1495 169.783 50.931 173.097 46.9931C176.411 43.0553 178.309 37.3368 178.301 30.4529C178.354 23.569 176.379 17.917 173.117 13.9875ZM169.159 43.1875C166.889 46.202 163.572 47.8658 159.761 47.8706C155.95 47.8755 152.568 46.1589 150.228 43.1502C147.889 40.1415 146.531 35.7794 146.524 30.5551C146.518 25.3307 147.803 21.0267 150.073 18.0121C152.344 14.9975 155.599 13.3338 159.41 13.329C163.22 13.3241 166.603 15.0407 168.942 18.0494C171.282 21.0581 172.639 25.4202 172.646 30.6446C172.714 35.8688 171.429 40.1728 169.159 43.1875Z" fill="#F3F3F2"/>
<path d="M205.305 47.4435L193.32 47.4588L193.271 8.7373L187.801 8.74425L187.857 52.8131L215.269 52.778C215.822 52.7773 216.252 52.4694 216.436 51.9775L218.151 47.427L205.305 47.4435Z" fill="#F3F3F2"/>
<path d="M246.438 8.60645L240.23 8.61437L224.491 52.7648L230.146 52.7576L233.881 41.9968L252.934 41.9724L256.759 52.7235L262.598 52.7161L246.438 8.60645ZM236.025 36.3395L243.312 15.1255L250.653 36.3822L236.025 36.401L236.025 36.3395Z" fill="#F3F3F2"/>
<path fill-rule="evenodd" clip-rule="evenodd" d="M35.4053 31.4847L40.322 31.4285C40.3203 31.2851 40.3194 31.1414 40.3192 30.9974C40.319 30.8533 40.3196 30.7096 40.3209 30.5662L35.404 30.5226C35.4026 30.6827 35.402 30.843 35.4022 31.0036C35.4024 31.1643 35.4034 31.3246 35.4053 31.4847ZM35.4298 29.3268L40.3439 29.4953C40.3538 29.208 40.3665 28.9221 40.3822 28.6374L35.4725 28.368C35.4551 28.6862 35.4408 29.0059 35.4298 29.3268ZM35.5536 27.1729L40.4546 27.5695C40.4777 27.2848 40.5036 27.0015 40.5323 26.7198L35.6407 26.2208C35.6085 26.5366 35.5795 26.854 35.5536 27.1729ZM35.7782 25.03L40.6548 25.6588C40.6914 25.3753 40.7308 25.0935 40.773 24.8137L35.911 24.0801C35.8635 24.395 35.8192 24.7116 35.7782 25.03ZM36.1056 22.8991L40.9458 23.7649C40.9959 23.4851 41.0488 23.2073 41.1045 22.9316L36.2846 21.9587C36.2217 22.2701 36.1621 22.5836 36.1056 22.8991ZM36.5383 20.787L41.3287 21.8957C41.3926 21.6196 41.4593 21.3459 41.5287 21.0746L36.7651 19.856C36.6863 20.164 36.6107 20.4744 36.5383 20.787ZM37.0786 18.701L41.8044 20.059C41.8822 19.7883 41.9627 19.5202 42.0459 19.2548L37.3542 17.7836C37.2591 18.0867 37.1673 18.3926 37.0786 18.701ZM37.7303 16.6456L42.3745 18.2609C42.4664 17.9965 42.5611 17.7352 42.6582 17.477L38.0566 15.7444C37.9446 16.0418 37.8359 16.3422 37.7303 16.6456ZM38.4965 14.6312L43.0392 16.5129C43.1452 16.257 43.2538 16.0045 43.3648 15.7556L38.8744 13.7523C38.7452 14.0419 38.6192 14.3349 38.4965 14.6312ZM39.3816 12.6664L43.7994 14.825C43.9201 14.5781 44.0432 14.3352 44.1686 14.0963L39.8152 11.8106C39.6674 12.092 39.5229 12.3772 39.3816 12.6664ZM40.3916 10.7608L44.656 13.2086C44.7906 12.9741 44.9275 12.744 45.0665 12.5185L40.8809 9.93818C40.7146 10.208 40.5515 10.4822 40.3916 10.7608ZM41.5297 8.93209L45.6061 11.6818C45.7547 11.4613 45.9054 11.246 46.0581 11.0358L42.0786 8.14758C41.8925 8.40406 41.7095 8.66565 41.5297 8.93209ZM42.8038 7.19417L46.6485 10.2593C46.811 10.0554 46.9753 9.85729 47.141 9.66491L43.4159 6.45545C43.2087 6.69595 43.0046 6.94223 42.8038 7.19417ZM44.2199 5.56795L47.7789 8.96067C47.9537 8.77727 48.1298 8.60019 48.307 8.42951L44.8957 4.88836C44.6673 5.10838 44.442 5.33497 44.2199 5.56795ZM45.7808 4.08198L48.9873 7.80966C49.1729 7.65004 49.3592 7.4973 49.5463 7.35133L46.5216 3.47472C46.2716 3.66975 46.0247 3.87223 45.7808 4.08198ZM47.4882 2.76806L50.2615 6.8284C50.4556 6.69583 50.6501 6.57051 50.8447 6.45231L48.2931 2.24915C48.022 2.41379 47.7536 2.58683 47.4882 2.76806ZM49.3379 1.66407L51.5855 6.03732C51.7853 5.93461 51.9853 5.83922 52.1852 5.75114L50.2022 1.25172C49.9114 1.3799 49.6232 1.51743 49.3379 1.66407ZM51.3156 0.811622L52.9421 5.45186C53.1451 5.38069 53.3483 5.31675 53.5517 5.25996L52.2291 0.524148C51.9222 0.60987 51.6176 0.705771 51.3156 0.811622ZM53.3944 0.250292L54.318 5.07979C54.5226 5.04067 54.7279 5.00855 54.934 4.98348L54.3405 0.102414C54.023 0.141018 53.7076 0.190392 53.3944 0.250292ZM55.5337 0.00884064L55.7083 4.92276C55.8119 4.91908 55.9159 4.91716 56.0203 4.91703C56.1247 4.91689 56.2288 4.91855 56.3324 4.92196L56.4944 0.0076114C56.3347 0.00234896 56.1746 -0.000193783 56.014 1.15031e-05C55.8535 0.000216789 55.6934 0.00316947 55.5337 0.00884064ZM57.6879 0.0981307L57.1068 4.9807C57.313 5.00523 57.5184 5.03683 57.7231 5.07544L58.6343 0.243587C58.321 0.184488 58.0054 0.135922 57.6879 0.0981307ZM59.8003 0.514462L58.4899 5.25364C58.6933 5.30991 58.8967 5.37333 59.1 5.44398L60.7145 0.7996C60.4123 0.694523 60.1075 0.599391 59.8003 0.514462ZM61.8289 1.23685L59.8576 5.74132C60.0577 5.8289 60.2579 5.9238 60.4581 6.02601L62.6943 1.64698C62.4084 1.50107 62.1202 1.36428 61.8289 1.23685ZM63.7404 2.22938L61.1999 6.4391C61.3949 6.55674 61.5898 6.68157 61.784 6.81365L64.5467 2.74623C64.2812 2.56568 64.012 2.39333 63.7404 2.22938ZM65.5154 3.45042L62.5006 7.3348C62.6881 7.48022 62.875 7.63252 63.0606 7.79165L66.2579 4.05578C66.0132 3.84666 65.7655 3.64481 65.5154 3.45042ZM67.1448 4.8599L63.7428 8.40972C63.9204 8.58003 64.0968 8.75661 64.272 8.93953L67.8227 5.53775C67.5996 5.30534 67.374 5.07933 67.1448 4.8599ZM68.6285 6.42318L64.9118 9.64217C65.0778 9.83412 65.2425 10.0318 65.406 10.2352L69.2425 7.16036C69.0415 6.90892 68.8362 6.66313 68.6285 6.42318ZM69.9702 8.11187L65.9985 11.0103C66.1515 11.2201 66.3027 11.435 66.4521 11.6551L70.5209 8.89503C70.3408 8.62902 70.1571 8.36792 69.9702 8.11187ZM71.1724 9.89945L66.9936 12.4904C67.1331 12.7156 67.2708 12.9453 67.406 13.1795L71.6641 10.7208C71.5031 10.4426 71.3396 10.1688 71.1724 9.89945ZM72.2431 11.7691L67.8952 14.066C68.0218 14.3045 68.1454 14.5471 68.2665 14.7937L72.6789 12.6237C72.5369 12.335 72.3919 12.05 72.2431 11.7691ZM73.189 13.7084L68.7035 15.7232C68.8153 15.9718 68.9247 16.224 69.0311 16.4797L73.5689 14.5863C73.4453 14.2903 73.3187 13.9976 73.189 13.7084ZM74.012 15.6985L69.4146 17.4428C69.5123 17.7007 69.6076 17.9618 69.7004 18.2259L74.3402 16.5988C74.2339 16.2956 74.1245 15.9955 74.012 15.6985ZM74.7194 17.7358L70.0311 19.219C70.1153 19.4841 70.1964 19.752 70.2751 20.0226L74.9973 18.6525C74.9081 18.3443 74.8153 18.0387 74.7194 17.7358ZM75.3138 19.8066L70.5535 21.0375C70.6236 21.3086 70.6906 21.5821 70.7551 21.858L75.543 20.7371C75.4699 20.4246 75.3931 20.1145 75.3138 19.8066ZM75.7993 21.9081L70.9825 22.8933C71.0384 23.1689 71.0925 23.4465 71.1429 23.7262L75.9807 22.848C75.9235 22.5327 75.8633 22.2194 75.7993 21.9081ZM76.1786 24.0286L71.3187 24.7746C71.3617 25.0543 71.4017 25.336 71.4392 25.6194L76.3138 24.9781C76.272 24.6599 76.2271 24.3433 76.1786 24.0286ZM76.4545 26.1685L71.5639 26.6801C71.5934 26.9617 71.6199 27.2449 71.6438 27.5296L76.5437 27.1205C76.5172 26.8016 76.4877 26.4843 76.4545 26.1685ZM76.6279 28.3153L71.7194 28.5974C71.7354 28.8819 71.749 29.1679 71.7594 29.4551L76.6733 29.274C76.6617 28.9531 76.6463 28.6336 76.6279 28.3153ZM76.7022 30.4698C76.7041 30.6298 76.7047 30.7902 76.7053 30.9508C76.7053 31.1114 76.7047 31.2718 76.7035 31.4318L71.7864 31.3883C71.7877 31.2448 71.7883 31.1011 71.7883 30.9571C71.7877 30.8131 71.7871 30.6694 71.7852 30.5259L76.7022 30.4698ZM76.6776 32.6277L71.7637 32.4592C71.7539 32.7465 71.741 33.0324 71.725 33.317L76.6346 33.5865C76.6524 33.2682 76.6666 32.9486 76.6776 32.6277ZM76.5535 34.7816L71.6525 34.3849C71.6297 34.6697 71.6039 34.953 71.575 35.2347L76.4668 35.7337C76.4988 35.4179 76.5277 35.1005 76.5535 34.7816ZM76.3292 36.9245L71.4527 36.2957C71.4158 36.5792 71.3765 36.8609 71.3341 37.1407L76.1964 37.8744C76.2437 37.5595 76.288 37.2428 76.3292 36.9245ZM76.0016 39.0554L71.1614 38.1895C71.1116 38.4694 71.0587 38.7472 71.0028 39.0229L75.8227 39.9958C75.8854 39.6844 75.945 39.3709 76.0016 39.0554ZM75.5689 41.1674L70.7785 40.0588C70.7145 40.3348 70.6482 40.6085 70.5787 40.8798L75.3421 42.0985C75.4213 41.7905 75.4969 41.4801 75.5689 41.1674ZM75.0286 43.2534L70.3027 41.8954C70.2253 42.1663 70.1448 42.4343 70.0612 42.6996L74.7533 44.1709C74.8485 43.8677 74.9401 43.5619 75.0286 43.2534ZM74.3771 45.3088L69.733 43.6935C69.6408 43.958 69.5461 44.2192 69.449 44.4774L74.0507 46.21C74.1626 45.9127 74.2714 45.6122 74.3771 45.3088ZM73.6107 47.3233L69.0679 45.4415C68.9622 45.6975 68.8534 45.95 68.7428 46.1989L73.2327 48.2021C73.3624 47.9126 73.4883 47.6196 73.6107 47.3233ZM72.7256 49.2881L68.3077 47.1294C68.1872 47.3763 68.0643 47.6193 67.9389 47.8582L72.2923 50.1439C72.4398 49.8626 72.5842 49.5772 72.7256 49.2881ZM71.7158 51.1937L67.4515 48.7458C67.3169 48.9804 67.1798 49.2105 67.0409 49.4359L71.2265 52.0163C71.3925 51.7465 71.556 51.4723 71.7158 51.1937ZM70.5775 53.0224L66.5013 50.2726C66.3525 50.4931 66.2019 50.7085 66.0495 50.9187L70.0286 53.8069C70.2148 53.5504 70.398 53.2888 70.5775 53.0224ZM69.3033 54.7603L65.4588 51.6952C65.2966 51.8991 65.1319 52.0972 64.9665 52.2895L68.6912 55.4991C68.8989 55.2585 69.103 55.0122 69.3033 54.7603ZM67.8872 56.3865L64.3285 52.9938C64.1534 53.1772 63.9776 53.3543 63.8006 53.5249L67.2118 57.0661C67.4398 56.8461 67.6654 56.6195 67.8872 56.3865ZM66.3267 57.8725L63.1202 54.1448C62.9346 54.3044 62.7483 54.4571 62.5609 54.6031L65.5861 58.4798C65.8356 58.2847 66.0827 58.0822 66.3267 57.8725ZM64.6193 59.1864L61.8461 55.126C61.6518 55.2586 61.4576 55.3839 61.2627 55.5021L63.8141 59.7053C64.0852 59.5407 64.3538 59.3677 64.6193 59.1864ZM62.7692 60.2904L60.5219 55.9171C60.322 56.0198 60.122 56.1152 59.9221 56.2033L61.9051 60.7027C62.1958 60.5745 62.4841 60.437 62.7692 60.2904ZM60.7917 61.1428L59.1653 56.5026C58.9622 56.5738 58.759 56.6377 58.5557 56.6945L59.8783 61.4305C60.1852 61.3444 60.4898 61.2485 60.7917 61.1428ZM58.713 61.704L57.7894 56.8747C57.5848 56.9138 57.3794 56.9459 57.1734 56.971L57.7669 61.8521C58.0844 61.8134 58.3998 61.7642 58.713 61.704ZM56.5737 61.9455L56.3991 57.0317C56.2955 57.0354 56.1914 57.0373 56.087 57.0374C55.9826 57.0375 55.8786 57.0359 55.7749 57.0325L55.6129 61.9468C55.7726 61.9523 55.9328 61.9547 56.0933 61.9547C56.2539 61.9541 56.414 61.9511 56.5737 61.9455ZM54.4195 61.8564L55.0005 56.9737C54.7944 56.9492 54.589 56.9176 54.3842 56.879L53.473 61.7107C53.7864 61.7697 54.1019 61.8183 54.4195 61.8564ZM52.307 61.4403L53.6175 56.7008C53.414 56.6445 53.2107 56.5811 53.0074 56.5105L51.3928 61.1551C51.6951 61.2602 51.9999 61.3549 52.307 61.4403ZM50.2783 60.7176L52.2498 56.2131C52.0497 56.1256 51.8494 56.0307 51.6493 55.9284L49.4129 60.3075C49.6986 60.4534 49.9871 60.5901 50.2783 60.7176ZM48.3667 59.7251L50.9075 55.5154C50.7125 55.3977 50.5177 55.2729 50.3233 55.1408L47.5605 59.2082C47.8263 59.3888 48.0951 59.5611 48.3667 59.7251ZM46.592 58.504L49.6068 54.6197C49.4193 54.4742 49.2326 54.3219 49.0466 54.1628L45.8497 57.8987C46.0941 58.1078 46.3415 58.3096 46.592 58.504ZM44.9624 57.0946L48.3648 53.5447C48.1871 53.3744 48.0105 53.1978 47.8353 53.0149L44.2849 56.4167C44.5076 56.6491 44.7335 56.8752 44.9624 57.0946ZM43.4787 55.5313L47.1955 52.3123C47.0293 52.1203 46.8646 51.9227 46.7016 51.7192L42.8646 54.7941C43.0662 55.0455 43.2708 55.2913 43.4787 55.5313ZM42.1371 53.8426L46.1091 50.9442C45.956 50.7343 45.8047 50.5194 45.6555 50.2993L41.5862 53.0594C41.7666 53.3255 41.9503 53.5865 42.1371 53.8426ZM40.9348 52.055L45.1138 49.464C44.9742 49.2389 44.8367 49.0091 44.7015 48.775L40.4434 51.2337C40.604 51.5119 40.7678 51.7857 40.9348 52.055ZM39.8642 50.1854L44.2118 47.8886C44.0858 47.65 43.9621 47.4074 43.8408 47.1607L39.4285 49.3307C39.5705 49.6195 39.7158 49.9044 39.8642 50.1854ZM38.9185 48.246L43.4038 46.2313C43.2922 45.9827 43.1829 45.7305 43.0763 45.4748L38.5384 47.3682C38.6619 47.6642 38.7886 47.9568 38.9185 48.246ZM38.0956 46.256C37.9829 45.9589 37.8734 45.6588 37.7671 45.3557L42.407 43.7285C42.4997 43.9927 42.595 44.2537 42.6928 44.5117L38.0956 46.256ZM37.3881 44.2187L42.076 42.7355C41.9921 42.4704 41.9109 42.2024 41.8324 41.9319L37.1101 43.302C37.1995 43.6102 37.2922 43.9158 37.3881 44.2187ZM36.7936 42.1478L41.5541 40.917C41.484 40.6458 41.4166 40.3723 41.352 40.0964L36.5645 41.2173C36.6377 41.5298 36.7141 41.84 36.7936 42.1478ZM36.3078 40.0463L41.1251 39.0611C41.0687 38.7855 41.0151 38.5079 40.9643 38.2282L36.1264 39.1064C36.1836 39.4217 36.2441 39.7351 36.3078 40.0463ZM35.9287 37.9259L40.7888 37.1798C40.7459 36.9001 40.7058 36.6185 40.6684 36.3351L35.7934 36.9763C35.8353 37.2946 35.8804 37.6112 35.9287 37.9259ZM35.653 35.7859L40.5433 35.2744C40.5138 34.9927 40.4872 34.7095 40.4634 34.4248L35.5634 34.834C35.5901 35.1529 35.6199 35.4702 35.653 35.7859ZM35.4793 33.6391L40.3882 33.3571C40.3718 33.0726 40.3584 32.7867 40.3478 32.4994L35.4341 32.6805C35.4459 33.0013 35.461 33.321 35.4793 33.6391Z" fill="url(#paint0_linear_1704_35978)"/>
<path fill-rule="evenodd" clip-rule="evenodd" d="M39.934 17.6739C37.4503 21.0505 35.8878 25.76 35.8945 31.0028C35.9012 36.2456 37.4758 40.951 39.968 44.3213C42.4606 47.692 45.8208 49.6748 49.4402 49.6702C53.0596 49.6655 56.4147 47.6741 58.8986 44.2971C61.3823 40.9205 62.9448 36.211 62.938 30.9682C62.9313 25.7254 61.3568 21.02 58.8645 17.6497C56.372 14.279 53.0118 12.2962 49.3924 12.3008C45.773 12.3054 42.4178 14.2968 39.934 17.6739ZM38.3496 16.5085C41.1065 12.7604 44.9983 10.3396 49.3899 10.334C53.7815 10.3284 57.6795 12.7392 60.4459 16.4802C63.2128 20.2216 64.8975 25.3461 64.9048 30.9656C64.9122 36.5852 63.2398 41.714 60.483 45.4625C57.7262 49.2106 53.8344 51.6313 49.4427 51.637C45.0511 51.6426 41.1531 49.2318 38.3867 45.4907C35.62 41.7493 33.9349 36.6249 33.9277 31.0053C33.9205 25.3857 35.5924 20.257 38.3496 16.5085Z" fill="url(#paint1_linear_1704_35978)"/>
<path fill-rule="evenodd" clip-rule="evenodd" d="M18.1643 17.6881C15.7645 21.0654 14.2527 25.7796 14.2594 31.03C14.2662 36.2804 15.79 40.9905 18.1984 44.3617C20.6084 47.7349 23.8448 49.7024 27.3134 49.6979C30.782 49.6935 34.0134 47.7177 36.4147 44.3384C38.8146 40.9611 40.3263 36.247 40.3196 30.9966C40.3129 25.7462 38.7891 21.036 36.3806 17.6648C33.9707 14.2916 30.7342 12.3241 27.2656 12.3286C23.797 12.3331 20.5656 14.3088 18.1643 17.6881ZM16.5611 16.5489C19.2226 12.8033 22.9923 10.3673 27.2631 10.3618C31.534 10.3564 35.3099 12.7827 37.981 16.5215C40.6535 20.2623 42.2792 25.3821 42.2864 30.9941C42.2936 36.6061 40.681 41.73 38.018 45.4777C35.3565 49.2232 31.5868 51.6593 27.3159 51.6648C23.0451 51.6702 19.2692 49.2438 16.5981 45.5051C13.9256 41.7643 12.2998 36.6444 12.2926 31.0325C12.2855 25.4205 13.8981 20.2965 16.5611 16.5489Z" fill="url(#paint2_linear_1704_35978)"/>
<path fill-rule="evenodd" clip-rule="evenodd" d="M41.3012 31.4773L36.3843 31.4337C36.3856 31.2902 36.3862 31.1465 36.386 31.0025C36.3858 30.8585 36.3849 30.7148 36.3832 30.5714L41.2999 30.5152C41.3018 30.6752 41.3028 30.8356 41.303 30.9962C41.3032 31.1569 41.3026 31.3172 41.3012 31.4773ZM41.2711 29.3194L36.3574 29.5005C36.3468 29.2132 36.3334 28.9273 36.317 28.6428L41.2259 28.3607C41.2442 28.6789 41.2593 28.9985 41.2711 29.3194ZM41.1418 27.1659C41.1151 26.847 41.0853 26.5297 41.0522 26.214L36.1619 26.7255C36.1914 27.0071 36.218 27.2903 36.2418 27.575L41.1418 27.1659ZM40.9118 25.0235L36.0367 25.6648C35.9994 25.3814 35.9593 25.0998 35.9164 24.82L40.7764 24.074C40.8248 24.3887 40.8699 24.7053 40.9118 25.0235ZM40.5788 22.8934L35.7409 23.7717C35.6901 23.492 35.6365 23.2143 35.5801 22.9387L40.3974 21.9535C40.4611 22.2648 40.5216 22.5781 40.5788 22.8934ZM40.1407 20.7825L35.3531 21.9034C35.2886 21.6275 35.2212 21.354 35.1511 21.0829L39.9116 19.8521C39.9911 20.1599 40.0675 20.4701 40.1407 20.7825ZM39.5951 18.6979L34.8728 20.068C34.7943 19.7974 34.7131 19.5295 34.6292 19.2644L39.3172 17.7812C39.413 18.0841 39.5057 18.3897 39.5951 18.6979ZM38.9381 16.6441L34.2981 18.2714C34.2055 18.0072 34.1102 17.7461 34.0123 17.4882L38.6096 15.7439C38.7223 16.0409 38.8318 16.3411 38.9381 16.6441ZM38.1668 14.6317L33.6289 16.525C33.5222 16.2694 33.413 16.0172 33.3013 15.7686L37.7866 13.7538C37.9166 14.043 38.0433 14.3357 38.1668 14.6317ZM37.2767 12.6692L32.8644 14.8392C32.7431 14.5925 32.6194 14.3499 32.4933 14.1113L36.8409 11.8145C36.9894 12.0955 37.1347 12.3804 37.2767 12.6692ZM36.2618 10.7662L32.0037 13.2249C31.8685 12.9907 31.731 12.761 31.5914 12.5358L35.7704 9.94488C35.9374 10.2142 36.1012 10.488 36.2618 10.7662ZM35.119 8.94039L31.0497 11.7006C30.9005 11.4805 30.7492 11.2655 30.5961 11.0556L34.5681 8.15729C34.7549 8.41335 34.9386 8.67438 35.119 8.94039ZM33.8406 7.20573L30.0036 10.2806C29.8406 10.0772 29.6759 9.87954 29.5096 9.68759L33.2265 6.4686C33.4343 6.70856 33.6391 6.95434 33.8406 7.20573ZM32.4203 5.58317L28.8699 8.98495C28.6946 8.80204 28.5181 8.62546 28.3404 8.45514L31.7428 4.90531C31.9717 5.12475 32.1976 5.35076 32.4203 5.58317ZM30.8555 4.10119L27.6586 7.83707C27.4726 7.67795 27.2859 7.52564 27.0984 7.38016L30.1132 3.49583C30.3637 3.69022 30.6112 3.89208 30.8555 4.10119ZM29.1447 2.79164L26.3819 6.85908C26.1875 6.72699 25.9927 6.60216 25.7977 6.48452L28.3385 2.2748C28.6101 2.43875 28.8789 2.6111 29.1447 2.79164ZM27.2922 1.6924L25.0559 6.07137C24.8557 5.96916 24.6555 5.87432 24.4554 5.78674L26.4269 1.28226C26.7181 1.4097 27.0066 1.54648 27.2922 1.6924ZM25.3123 0.845012L23.6978 5.48939C23.4945 5.41874 23.2911 5.35532 23.0877 5.29905L24.3981 0.559874C24.7053 0.644803 25.0101 0.739935 25.3123 0.845012ZM23.2322 0.288998C22.9188 0.2299 22.6033 0.181333 22.2857 0.143542L21.7047 5.02611C21.9108 5.05065 22.1163 5.08224 22.321 5.12085L23.2322 0.288998ZM21.0923 0.0530215L20.9303 4.96738C20.8266 4.96396 20.7226 4.96231 20.6182 4.96244C20.5138 4.96258 20.4097 4.96449 20.3061 4.96817L20.1316 0.0542508C20.2912 0.0485802 20.4513 0.0456269 20.6119 0.0454217C20.7724 0.0452164 20.9326 0.0477597 21.0923 0.0530215ZM18.9384 0.147824L19.5319 5.02889C19.3258 5.05395 19.1204 5.08608 18.9158 5.12521L17.9922 0.295701C18.3054 0.235801 18.6208 0.186428 18.9384 0.147824ZM16.827 0.569554L18.1495 5.30537C17.9462 5.36215 17.743 5.4261 17.5399 5.49727L15.9135 0.857034C16.2155 0.751183 16.52 0.655276 16.827 0.569554ZM14.8001 1.29713L16.7831 5.79655C16.5832 5.88465 16.3832 5.98004 16.1833 6.08274L13.9357 1.70949C14.2211 1.56284 14.5092 1.42531 14.8001 1.29713ZM12.891 2.29456L15.4425 6.49774C15.2479 6.61593 15.0534 6.74125 14.8593 6.87383L12.0861 2.81347C12.3514 2.63225 12.6198 2.4592 12.891 2.29456ZM11.1194 3.52013L14.1441 7.39675C13.9571 7.54267 13.7707 7.69546 13.5851 7.85508L10.3787 4.12738C10.6225 3.91765 10.8695 3.71516 11.1194 3.52013ZM9.49349 4.93377L12.9049 8.47487C12.7277 8.64562 12.5516 8.82269 12.3768 9.0061L8.81771 5.61336C9.03983 5.38038 9.26509 5.15379 9.49349 4.93377ZM8.01377 6.50081L11.7388 9.71034C11.5731 9.90271 11.4089 10.1008 11.2464 10.3047L7.4016 7.23959C7.60246 6.98766 7.80652 6.74138 8.01377 6.50081ZM6.67646 8.193L10.6559 11.0812C10.5033 11.2914 10.3526 11.5068 10.2039 11.7272L6.1276 8.97752C6.30732 8.71101 6.49036 8.44949 6.67646 8.193ZM5.47876 9.9836L9.66435 12.5639C9.52533 12.7894 9.38845 13.0195 9.25384 13.254L4.9894 10.8062C5.1493 10.5276 5.31245 10.2534 5.47876 9.9836ZM4.41298 11.856L8.76645 14.1417C8.641 14.3806 8.51795 14.6235 8.3973 14.8704L3.97944 12.7117C4.12071 12.4226 4.26526 12.1373 4.41298 11.856ZM3.47223 13.7977L7.9627 15.801C7.85163 16.0499 7.74303 16.3023 7.63707 16.5583L3.09432 14.6766C3.21707 14.3803 3.34306 14.0873 3.47223 13.7977ZM2.65442 15.7899L7.25606 17.5224C7.15889 17.7806 7.06423 18.0419 6.97228 18.3063L2.32818 16.691C2.4337 16.3877 2.54247 16.0872 2.65442 15.7899ZM1.95204 17.829L6.64377 19.3003C6.56061 19.5655 6.48003 19.8336 6.40222 20.1044L1.67646 18.7464C1.76509 18.438 1.85698 18.1322 1.95204 17.829ZM1.36293 19.9014L6.12656 21.12C6.05715 21.3913 5.99047 21.665 5.92658 21.9411L1.13617 20.8325C1.20853 20.5198 1.28414 20.2094 1.36293 19.9014ZM0.882467 22.0041L5.70228 22.977C5.64663 23.2527 5.59374 23.5305 5.54368 23.8103L0.703493 22.9444C0.759928 22.629 0.819609 22.3155 0.882467 22.0041ZM0.508842 24.1255L5.37084 24.8591C5.32861 25.139 5.28919 25.4207 5.25265 25.7041L0.375988 25.0754C0.417037 24.757 0.46134 24.4404 0.508842 24.1255ZM0.238546 26.2661L5.13018 26.7652C5.10144 27.0469 5.07552 27.3302 5.05247 27.6149L0.151474 27.2183C0.177283 26.8994 0.206324 26.582 0.238546 26.2661ZM0.0703633 28.4134L4.97999 28.6829C4.96438 28.9674 4.95162 29.2534 4.94177 29.5407L0.0276344 29.3722C0.0386356 29.0513 0.052895 28.7317 0.0703633 28.4134ZM0.00186301 30.568C0.000443347 30.7281 -0.000166672 30.8884 3.88597e-05 31.049C0.000244391 31.2097 0.00126474 31.3701 0.00309393 31.5301L4.9198 31.4739C4.91816 31.3305 4.91724 31.1868 4.91706 31.0428C4.91687 30.8988 4.91742 30.7551 4.91869 30.6116L0.00186301 30.568ZM0.0319245 32.7258L4.94561 32.5448C4.9562 32.832 4.96969 33.1179 4.98604 33.4025L0.077107 33.6846C0.0588243 33.3663 0.0437475 33.0467 0.0319245 32.7258ZM0.161276 34.8794L5.06124 34.4702C5.08502 34.7549 5.11166 35.0382 5.14112 35.3197L0.250784 35.8313C0.217753 35.5156 0.1879 35.1983 0.161276 34.8794ZM0.391271 37.0218L5.26631 36.3805C5.30358 36.6639 5.34371 36.9455 5.38666 37.2253L0.526555 37.9713C0.478249 37.6565 0.433136 37.34 0.391271 37.0218ZM0.724231 39.1518L5.56219 38.2736C5.61296 38.5533 5.66656 38.831 5.72291 39.1065L0.905607 40.0918C0.84195 39.7805 0.781471 39.4672 0.724231 39.1518ZM1.16231 41.2627L5.94987 40.1418C6.01446 40.4177 6.08184 40.6913 6.15194 40.9624L1.39146 42.1932C1.31187 41.8854 1.23547 41.5752 1.16231 41.2627ZM1.70794 43.3473L6.43024 41.9773C6.50873 42.2479 6.58992 42.5157 6.67382 42.7809L1.98586 44.2641C1.89002 43.9612 1.79736 43.6556 1.70794 43.3473ZM2.36491 45.4011L7.00486 43.7739C7.09755 44.038 7.19281 44.2991 7.29066 44.5571L2.69346 46.3014C2.58074 46.0044 2.47121 45.7042 2.36491 45.4011ZM3.13621 47.4136L7.67407 45.5202C7.78077 45.7759 7.88999 46.0281 8.00166 46.2767L3.51636 48.2914C3.38645 48.0023 3.25971 47.7096 3.13621 47.4136ZM4.02635 49.3761L8.43866 47.2061C8.55993 47.4527 8.68365 47.6954 8.80965 47.9339L4.46208 50.2308C4.31363 49.9498 4.16837 49.6649 4.02635 49.3761ZM5.04119 51.2791L9.29933 48.8203C9.43455 49.0546 9.57204 49.2843 9.71162 49.5095L5.53265 52.1004C5.36565 51.8311 5.20179 51.5573 5.04119 51.2791ZM6.18402 53.1048L10.2533 50.3447C10.4026 50.5648 10.5538 50.7798 10.7069 50.9896L6.73498 53.8879C6.54813 53.632 6.36448 53.3709 6.18402 53.1048ZM7.46251 54.8395L11.2994 51.7646C11.4624 51.968 11.6272 52.1658 11.7934 52.3577L8.07652 55.5767C7.86872 55.3367 7.66399 55.091 7.46251 54.8395ZM8.88279 56.4621L12.4331 53.0603C12.6084 53.2433 12.7849 53.4198 12.9626 53.5902L9.5603 57.14C9.33135 56.9205 9.10547 56.6945 8.88279 56.4621ZM10.4475 57.9441L13.6444 54.2082C13.8304 54.3673 14.0172 54.5197 14.2046 54.6651L11.1898 58.5495C10.9393 58.3551 10.6919 58.1532 10.4475 57.9441ZM12.1583 59.2536L14.9211 55.1862C15.1156 55.3183 15.3103 55.4431 15.5053 55.5608L12.9645 59.7705C12.6929 59.6066 12.4241 59.4342 12.1583 59.2536ZM14.0108 60.3529L16.2471 55.9739C16.4473 56.0761 16.6475 56.171 16.8476 56.2586L14.8762 60.763C14.585 60.6356 14.2965 60.4988 14.0108 60.3529ZM15.9907 61.2004L17.6052 56.5559C17.8085 56.6265 18.0119 56.69 18.2153 56.7462L16.9049 61.4856C16.5977 61.4002 16.2929 61.3055 15.9907 61.2004ZM18.0709 61.756L18.982 56.9244C19.1868 56.963 19.3922 56.9946 19.5984 57.0192L19.0173 61.9017C18.6998 61.8642 18.3842 61.8157 18.0709 61.756ZM20.2108 61.9921L20.3728 57.0779C20.4764 57.0813 20.5805 57.083 20.6849 57.0828C20.7893 57.0827 20.8933 57.0808 20.9969 57.0771L21.1715 61.9908C21.0118 61.997 20.8517 61.9994 20.6911 62C20.5306 62 20.3705 61.9976 20.2108 61.9921ZM22.3647 61.8974L21.7712 57.0164C21.9773 56.9913 22.1826 56.9592 22.3872 56.9201L23.3108 61.7493C22.9976 61.8095 22.6822 61.8587 22.3647 61.8974ZM24.4761 61.4758L23.1535 56.7399C23.3568 56.6831 23.56 56.6192 23.7631 56.548L25.3895 61.1881C25.0876 61.2938 24.783 61.3897 24.4761 61.4758ZM26.5029 60.7482L24.52 56.2487C24.7198 56.1606 24.9198 56.0653 25.1197 55.9626L27.3673 60.3358C27.082 60.4825 26.7938 60.62 26.5029 60.7482ZM28.412 59.7507L25.8605 55.5476C26.0551 55.4294 26.2496 55.304 26.4437 55.1715L29.2169 59.2318C28.9516 59.413 28.6832 59.5861 28.412 59.7507ZM30.1836 58.5251L27.1589 54.6485C27.346 54.5026 27.5323 54.3498 27.7179 54.1902L30.9244 57.9179C30.6806 58.1276 30.4335 58.3301 30.1836 58.5251ZM31.8095 57.1115L28.3981 53.5704C28.5753 53.3997 28.7515 53.2226 28.9263 53.0392L32.4853 56.4319C32.2632 56.6649 32.0379 56.8915 31.8095 57.1115ZM33.2893 55.5444L29.5642 52.335C29.7299 52.1426 29.8942 51.9445 30.0567 51.7406L33.9015 54.8057C33.7006 55.0576 33.4965 55.3039 33.2893 55.5444ZM34.6265 53.8523L30.6471 50.9641C30.7997 50.7539 30.9504 50.5385 31.0991 50.3181L35.1755 53.0678C34.9957 53.3342 34.8127 53.5958 34.6265 53.8523ZM35.8243 52.0617L31.6386 49.4814C31.7777 49.2559 31.9146 49.0258 32.0492 48.7913L36.3136 51.2391C36.1537 51.5176 35.9906 51.7919 35.8243 52.0617ZM36.89 50.1893L32.5366 47.9036C32.662 47.6647 32.7851 47.4217 32.9058 47.1749L37.3236 49.3335C37.1823 49.6226 37.0378 49.9079 36.89 50.1893ZM37.8308 48.2476L33.3404 46.2443C33.4514 45.9954 33.56 45.7429 33.666 45.487L38.2087 47.3687C38.086 47.665 37.96 47.958 37.8308 48.2476ZM38.6486 46.2554L34.0469 44.5229C34.1441 44.2646 34.2388 44.0033 34.3307 43.739L38.9748 45.3543C38.8693 45.6576 38.7606 45.9581 38.6486 46.2554ZM39.351 44.2163L34.6592 42.745C34.7425 42.4797 34.823 42.2116 34.9008 41.9409L39.6266 43.2988C39.5379 43.6073 39.446 43.9131 39.351 44.2163ZM39.9401 42.1439L35.1764 40.9253C35.2459 40.654 35.3126 40.3803 35.3764 40.1042L40.1669 41.2128C40.0945 41.5255 40.0189 41.8359 39.9401 42.1439ZM40.4206 40.0412L35.6007 39.0683C35.6564 38.7926 35.7093 38.5148 35.7594 38.235L40.5996 39.1008C40.5431 39.4163 40.4834 39.7298 40.4206 40.0412ZM40.7942 37.9197L35.9322 37.1862C35.9744 36.9063 36.0138 36.6246 36.0504 36.3411L40.927 36.9699C40.886 37.2883 40.8417 37.6049 40.7942 37.9197ZM41.0645 35.7791L36.1729 35.2801C36.2016 34.9984 36.2275 34.7151 36.2506 34.4304L41.1516 34.827C41.1257 35.1459 41.0967 35.4633 41.0645 35.7791ZM41.2327 33.6319L36.323 33.3624C36.3386 33.0778 36.3514 32.7919 36.3613 32.5046L41.2754 32.6731C41.2644 32.994 41.2501 33.3136 41.2327 33.6319Z" fill="url(#paint3_linear_1704_35978)"/>
<path d="M38.3738 47.718C47.6068 47.7062 55.0821 40.2117 55.0703 30.9787C55.0585 21.7457 47.5641 14.2704 38.331 14.2822C29.098 14.2941 21.6227 21.7885 21.6346 31.0215C21.6464 40.2545 29.1408 47.7298 38.3738 47.718Z" fill="url(#paint4_linear_1704_35978)"/>
<defs>
<linearGradient id="paint0_linear_1704_35978" x1="62.9905" y1="13.2355" x2="61.8571" y2="50.4094" gradientUnits="userSpaceOnUse">
<stop stop-color="#A88CFF"/>
<stop offset="1" stop-color="#6754D6"/>
</linearGradient>
<linearGradient id="paint1_linear_1704_35978" x1="43.2154" y1="19.7344" x2="44.1033" y2="43.3339" gradientUnits="userSpaceOnUse">
<stop stop-color="#A88CFF"/>
<stop offset="1" stop-color="#6754D6"/>
</linearGradient>
<linearGradient id="paint2_linear_1704_35978" x1="21.6718" y1="19.7615" x2="22.5343" y2="43.3607" gradientUnits="userSpaceOnUse">
<stop stop-color="#A88CFF"/>
<stop offset="1" stop-color="#6754D6"/>
</linearGradient>
<linearGradient id="paint3_linear_1704_35978" x1="13.6695" y1="13.2987" x2="14.8979" y2="50.4696" gradientUnits="userSpaceOnUse">
<stop stop-color="#A88CFF"/>
<stop offset="1" stop-color="#6754D6"/>
</linearGradient>
<linearGradient id="paint4_linear_1704_35978" x1="25.6641" y1="21.4462" x2="26.6463" y2="41.5176" gradientUnits="userSpaceOnUse">
<stop stop-color="#9D7DFF"/>
<stop offset="1" stop-color="#6754D6"/>
</linearGradient>
</defs>
</svg>
