<svg width="120" height="119" viewBox="0 0 120 119" fill="none" xmlns="http://www.w3.org/2000/svg">
<path d="M0 7C0 3.13401 3.13401 0 7 0H120V119H7C3.13401 119 0 115.866 0 112V7Z" fill="#6754D6"/>
<g opacity="0.75" clip-path="url(#clip0)">
<rect width="80" height="84.8016" transform="translate(20.3008 17.4004)" fill="white" fill-opacity="0.01"/>
<path d="M100.262 17.5398L20.3809 17.4004L20.2627 85.1265L100.143 85.2659L100.262 17.5398Z" fill="url(#paint0_linear)"/>
<path d="M28.8319 48.71C28.757 53.2345 27.7009 57.6889 25.7367 61.7655C24.329 64.6088 22.5105 67.2294 20.3398 69.5433V85.1385H63.1176L28.8319 48.71Z" fill="#0057D8"/>
<path d="M91.8355 25.3033L28.8594 25.1934L28.8076 54.8719L91.7837 54.9818L91.8355 25.3033Z" fill="#253858"/>
<path d="M83.6341 33.789H57.7611C52.6421 33.789 54.0706 29.543 49.0309 29.543H39.6659C39.1923 29.543 38.7381 29.7311 38.4032 30.066C38.0683 30.4009 37.8801 30.8551 37.8801 31.3287V33.789L37.8008 69.3842L85.3801 69.4636V35.5747C85.3803 35.1079 85.1976 34.6596 84.8712 34.3258C84.5449 33.9921 84.1008 33.7994 83.6341 33.789Z" fill="#505F79"/>
<path d="M85.4194 37.2418H56.7686C51.1336 37.1624 52.7209 32.4799 47.1257 32.4799H36.7686C36.5099 32.4746 36.2528 32.521 36.0123 32.6164C35.7718 32.7117 35.5527 32.8541 35.3679 33.0352C35.1831 33.2163 35.0363 33.4324 34.9362 33.671C34.836 33.9095 34.7844 34.1656 34.7844 34.4243V37.1624L34.7051 76.6069L87.3241 76.7259V39.1862C87.3242 38.6774 87.1248 38.1887 86.7687 37.8252C86.4126 37.4616 85.9282 37.2522 85.4194 37.2418Z" fill="#3DC7DC"/>
<path d="M86.8872 40.6149H56.1729C50.1015 40.5752 51.8078 35.5752 45.8158 35.5752H34.665C34.1072 35.5752 33.5722 35.7968 33.1778 36.1912C32.7834 36.5856 32.5618 37.1206 32.5618 37.6784V40.6149L32.4824 82.8768L88.911 82.9562L88.9904 42.7181C88.9904 42.1603 88.7688 41.6253 88.3744 41.2309C87.9799 40.8365 87.445 40.6149 86.8872 40.6149Z" fill="#6BD5E5"/>
<path d="M87.7607 44.3048H55.4591C49.1099 44.2651 50.8956 38.9873 44.5861 38.9873H32.8797C32.2903 38.9873 31.7251 39.2214 31.3084 39.6382C30.8916 40.0549 30.6575 40.6202 30.6575 41.2095V44.3048L30.5781 88.8286L89.9035 88.9079L89.9829 46.6064C89.9936 46.3079 89.944 46.0104 89.8371 45.7316C89.7302 45.4527 89.5682 45.1983 89.3608 44.9834C89.1533 44.7686 88.9047 44.5978 88.6298 44.4812C88.3549 44.3646 88.0593 44.3046 87.7607 44.3048Z" fill="#9CE3EE"/>
<path d="M91.7945 48.7945L28.8184 48.6846L28.7252 102.061L91.7013 102.171L91.7945 48.7945Z" fill="#3384FF"/>
<path d="M71.0471 90.5045L55.0154 90.4765C54.4018 90.4755 53.9034 90.9721 53.9024 91.5857L53.9005 92.6254C53.8995 93.239 54.3961 93.7374 55.0097 93.7384L71.0414 93.7664C71.6551 93.7675 72.1534 93.2709 72.1545 92.6573L72.1563 91.6176C72.1574 91.0039 71.6608 90.5056 71.0471 90.5045Z" fill="#FAFBFC"/>
<path d="M49.2285 93.7501C50.1271 93.7501 50.8555 93.0216 50.8555 92.1231C50.8555 91.2245 50.1271 90.4961 49.2285 90.4961C48.33 90.4961 47.6016 91.2245 47.6016 92.1231C47.6016 93.0216 48.33 93.7501 49.2285 93.7501Z" fill="#FAFBFC"/>
<path d="M72.2057 81.6865H48.3168C48.2612 81.6868 48.2061 81.6754 48.1552 81.653C48.1042 81.6306 48.0586 81.5978 48.0212 81.5567C47.9838 81.5155 47.9554 81.4669 47.938 81.4141C47.9205 81.3613 47.9144 81.3054 47.92 81.25V62.5199C47.9183 62.4677 47.9281 62.4158 47.9487 62.3678C47.9692 62.3198 48.0001 62.2769 48.039 62.2421C48.1145 62.1706 48.213 62.1284 48.3168 62.123H72.2454C72.3476 62.132 72.4434 62.1767 72.516 62.2492C72.5886 62.3218 72.6332 62.4176 72.6422 62.5199V81.2897C72.6445 81.3479 72.6352 81.406 72.6147 81.4605C72.5943 81.515 72.5632 81.5649 72.5231 81.6072L72.2057 81.6865ZM48.7136 80.8929H71.8088V62.9564H48.7136V80.8929Z" fill="#0057D8"/>
<path d="M64.5865 75.8126C64.5343 75.8143 64.4824 75.8045 64.4344 75.7839C64.3864 75.7634 64.3435 75.7325 64.3087 75.6936C64.236 75.6194 64.1953 75.5197 64.1953 75.4158C64.1953 75.3119 64.236 75.2122 64.3087 75.138L67.6818 72.0428L64.5865 68.6698C64.5325 68.5894 64.5098 68.4921 64.5226 68.3961C64.5354 68.3001 64.5829 68.2121 64.6561 68.1487C64.7293 68.0853 64.8231 68.0508 64.9199 68.0518C65.0167 68.0527 65.1099 68.0891 65.1818 68.1539L68.5548 71.8047C68.6139 71.8874 68.6423 71.9882 68.6351 72.0896C68.6278 72.1911 68.5854 72.2868 68.5151 72.3603L64.8643 75.7333C64.785 75.7937 64.6858 75.822 64.5865 75.8126Z" fill="#0057D8"/>
<path d="M55.697 75.7736C55.6416 75.7705 55.5876 75.7546 55.5394 75.7271C55.4911 75.6995 55.45 75.6611 55.4192 75.6149L52.0462 71.9641C51.9871 71.8813 51.9587 71.7806 51.966 71.6791C51.9732 71.5777 52.0156 71.482 52.0859 71.4085L55.7367 68.0355C55.8194 67.9764 55.9202 67.948 56.0216 67.9552C56.1231 67.9625 56.2188 68.0049 56.2923 68.0752C56.365 68.1493 56.4057 68.2491 56.4057 68.3529C56.4057 68.4568 56.365 68.5566 56.2923 68.6307L52.9192 71.726L56.0145 75.099C56.0736 75.1817 56.102 75.2825 56.0948 75.3839C56.0875 75.4853 56.0451 75.5811 55.9748 75.6545C55.94 75.6935 55.8971 75.7243 55.8491 75.7449C55.8011 75.7655 55.7492 75.7753 55.697 75.7736Z" fill="#0057D8"/>
<path d="M58.8318 77.0826H58.7127C58.6187 77.0473 58.5398 76.9807 58.4892 76.8939C58.4386 76.8072 58.4194 76.7056 58.4349 76.6064L61.0937 67.0033C61.1093 66.9511 61.1351 66.9026 61.1694 66.8605C61.2038 66.8183 61.2462 66.7833 61.2941 66.7575C61.342 66.7317 61.3945 66.7156 61.4486 66.7101C61.5028 66.7046 61.5574 66.7098 61.6096 66.7255C61.6617 66.7411 61.7102 66.7669 61.7524 66.8012C61.7945 66.8356 61.8295 66.878 61.8553 66.9259C61.8811 66.9738 61.8972 67.0263 61.9027 67.0804C61.9082 67.1346 61.903 67.1892 61.8873 67.2414L59.2286 76.8048C59.1934 76.8824 59.1379 76.9491 59.0681 76.998C58.9983 77.0468 58.9167 77.076 58.8318 77.0826Z" fill="#0057D8"/>
</g>
<defs>
<linearGradient id="paint0_linear" x1="23.4007" y1="88.2217" x2="97.1943" y2="14.428" gradientUnits="userSpaceOnUse">
<stop offset="0.21" stop-color="#0065FF"/>
<stop offset="1" stop-color="#4C9AFF"/>
</linearGradient>
<clipPath id="clip0">
<rect width="80" height="84.8016" fill="white" transform="translate(20.3008 17.4004)"/>
</clipPath>
</defs>
</svg>
