<svg height="152.64" viewBox="0 0 483.84 152.64" width="483.84" xmlns="http://www.w3.org/2000/svg"><path d="m4.698 4.434v75.72c.284 12.67 4.42 23.583 12.295 32.44 14.017 15.763 35.236 19.67 37.61 20.065l.325.05.47.07.472-.07c.947-.14 23.355-3.58 38.01-20.13 3.32-3.75 6.005-7.93 7.983-12.43 2.657-6.05 4.086-12.78 4.248-20.04v-75.679h-101.411z" fill="#fff"/><g fill="#e31837"><path d="m70.53 9.943h-8.07l-.885 22.21c.238.044.476.09.713.14zm13.156 28.424 16.945-12.314v-15.083l-19.921 27.396m-6.458-.973 25.368-27.45h-13.49l-12.49 27.043c.204.133.406.27.607.407zm-5.726-3.145 14.884-24.305h-9.783l-5.782 24.027c.226.09.45.183.675.278zm32.11 4.12v-8.634l-9.347 8.633m-35.889-6.773c.14 0 .28.004.422.006l3.42-21.656h-7.566l3.424 21.654c.1 0 .198-.004.298-.004zm-6.08.56-.885-22.21h-8.07l8.242 22.35c.237-.05.475-.097.713-.14zm-19.127 6.213-19.93-27.397v15.083l16.947 12.314m10.046-1.38-12.486-27.045h-13.49l25.37 27.45c.2-.138.402-.274.606-.407zm5.794-3.017-5.784-24.026h-9.783l14.89 24.305c.224-.1.45-.19.675-.28zm-32.787-4.236v8.633h9.35"/><path d="m4.698 4.434v75.72c.284 12.67 4.42 23.583 12.295 32.44 14.017 15.763 35.236 19.67 37.61 20.065l.325.05.47.07.472-.07c.947-.14 23.355-3.58 38.01-20.13 3.32-3.75 6.005-7.93 7.983-12.43 2.657-6.05 4.086-12.78 4.248-20.04v-75.679h-101.411zm98.83 75.662c-.154 6.887-1.51 13.285-4.03 19.02-1.872 4.255-4.412 8.21-7.553 11.757-14.055 15.87-35.54 19.148-36.448 19.28l-.093.015-.095-.016c-.05-.006-.14-.02-.29-.045-2.28-.377-22.67-4.13-36.1-19.232-7.46-8.385-11.38-18.74-11.65-30.79v-73.065h96.24v73.078z"/><path d="m28.36 71.873v2.727h2.665v-2.495l-.018-.232m-7.707-1.916.05.167h7.657v-8.847l-.315.12c-.527.202-1.072.32-1.66.358-.098.006-.196.008-.302.01l-.144.002c-1.335 0-2.626-.284-3.837-.844-.13-.057-.24-.113-.38-.182-.41-.17-.84-.26-1.29-.26-1.78 0-3.23 1.45-3.23 3.23 0 1.06.2 1.43 1.53 2.88.89.98 1.53 2.12 1.9 3.38zm14.733 1.916h2.667v2.727h-2.667z"/><path d="m10.28 80.166c.256 11.3 3.923 21.004 10.898 28.85 11.098 12.482 27.535 16.818 32.787 17.93v-85.662h-43.685zm13.678 10.172h-4.256v-.326l.826-.1c.55-.062.55-.176.55-1.527v-3.305c0-1.504-.086-1.63-.337-1.63-.15 0-.27.026-.42.052l-.82.14-.1-.327c.54-.213 2.79-.977 3.01-1.053l.19.14v5.983c0 1.352 0 1.465.56 1.527l.83.1v.326zm19.503-11.61v.813h-22.761v-.81h22.76zm-22.76-.83v-.816h22.76v.815h-22.761zm8.44 9.284c-.64 1.527-.81 1.63-1.22 3.432l-.14.086c-.56-.25-.94-.475-1.26-.912.14-.877 1.69-2.566 2.78-4.307.58-.93.72-1.4.82-1.85h-2.421c-1.402 0-1.29 0-1.666.98l-.325-.1c.07-.7.18-1.4.55-2.05h5.03l.11.14c-.34 1.28-.92 1.88-2.27 4.6zm6.1 3.343c-1.5 0-2.78-1.09-2.78-3.393 0-3.393 2.23-4.87 4.26-4.87.6 0 1.02.15 1.2.226l-.1.35c-.21-.05-.36-.1-.8-.1-1.7 0-3 1.402-3 4.23 0 1.79.52 3.08 1.58 3.08.83 0 1.14-.852 1.14-1.64 0-1.202-.68-2.267-1.65-2.267-.11 0-.21.02-.32.03l-.05-.22c.28-.21.68-.52 1.38-.52 1.04 0 1.98.91 1.98 2.1 0 2-1.24 3.01-2.82 3.01zm6.9 0c-1.5 0-2.78-1.09-2.78-3.393 0-3.393 2.23-4.87 4.26-4.87.6 0 1.02.15 1.21.226l-.1.35c-.21-.05-.36-.1-.8-.1-1.7 0-3 1.402-3 4.23 0 1.79.52 3.08 1.58 3.08.83 0 1.14-.852 1.14-1.64 0-1.202-.69-2.267-1.65-2.267-.11 0-.21.02-.32.03l-.05-.22c.28-.21.68-.52 1.38-.52 1.04 0 1.98.91 1.98 2.1 0 2-1.24 3.01-2.81 3.01zm-10.031-37.812c1.1 0 1.992.893 1.992 1.992 0 1.102-.892 1.993-1.992 1.993s-1.992-.892-1.992-1.993c0-1.1.892-1.992 1.992-1.992zm-9.013 5.384c.822 0 1.617.175 2.35.512.107.05.215.11.325.16.89.41 1.837.62 2.82.62l.095-.01c.077 0 .154 0 .234-.01 1.09-.07 2.05-.7 2.56-1.67h1.32c.5.96 1.47 1.6 2.56 1.67h.33c.91 0 1.79-.18 2.64-.54.21-.13.43-.23.65-.32.69-.29 1.42-.44 2.17-.44 3.12 0 5.65 2.53 5.65 5.65 0 1.45-.75 3.02-2.11 4.44-.03.03-.06.06-.09.1-.8.88-1.32 1.97-1.51 3.14-.03.2-.05.4-.07.63v.69c.04.69.2 1.37.47 2.01v1.37h-22.791v-1.27c.345-.78.52-1.61.52-2.46 0-.32-.025-.64-.074-.95-.184-1.19-.71-2.29-1.522-3.18-.026-.04-.06-.07-.095-.11-1.37-1.43-2.1-2.97-2.1-4.43 0-3.12 2.53-5.65 5.65-5.65z"/><path d="m23.522 71.873h2.666v2.727h-2.666zm17.39-1.916c.368-1.26 1.004-2.39 1.898-3.366.16-.18 1.55-1.85 1.55-2.88 0-1.78-1.45-3.23-3.23-3.23-.43 0-.847.09-1.24.25-.12.05-.244.11-.366.19l-.294.15c-1.128.48-2.324.72-3.556.72h-.152c-.093 0-.193 0-.332-.01-.563-.03-1.122-.16-1.66-.37l-.316-.12v8.87h7.648l.05-.17zm-7.716 1.916h2.667v2.727h-2.667zm37.814 3.16c.576-.043 1-.13 1.372-.21.41-.085.76-.16 1.256-.165.77-.02 1.57.156 2.374.495v-1.016c-.802-.292-1.603-.444-2.387-.434-.587.008-1.02.1-1.44.187-.36.075-.733.153-1.244.19-.74.053-1.5-.003-2.24-.162v.97c.77.147 1.55.2 2.32.144zm0-2.59c.576-.04 1-.13 1.372-.207.41-.086.76-.16 1.256-.166.77-.02 1.57.156 2.374.495v-1.015c-.802-.292-1.603-.444-2.387-.434-.587.01-1.02.1-1.44.187-.36.075-.733.154-1.244.19-.74.053-1.5-.003-2.24-.16v.968c.77.15 1.55.2 2.32.15zm0-2.586c.576-.04 1-.13 1.373-.21.408-.084.76-.157 1.255-.165.772-.023 1.573.158 2.375.496v-1.018c-.8-.293-1.6-.455-2.386-.432-.587.008-1.02.1-1.44.186-.36.076-.732.154-1.245.19-.746.055-1.5 0-2.246-.16v.97c.768.147 1.545.2 2.314.143zm0-5.175c.576-.04 1-.13 1.372-.208.41-.085.76-.16 1.256-.166.77-.02 1.57.157 2.374.495v-1.016c-.802-.295-1.603-.456-2.387-.434-.587.008-1.02.1-1.44.188-.36.08-.733.16-1.244.19-.74.06-1.5 0-2.24-.16v.97c.77.15 1.55.2 2.32.15zm0 2.588c.576-.04 1-.13 1.372-.208.408-.086.76-.16 1.255-.166.77-.017 1.57.157 2.375.495v-1.01c-.802-.29-1.603-.45-2.387-.43-.587.01-1.02.1-1.44.19-.36.08-.732.16-1.244.19-.74.06-1.5 0-2.24-.16v.97c.77.15 1.55.2 2.32.15zm0-5.176c.576-.04 1-.13 1.373-.21.408-.084.76-.158 1.255-.165.772-.02 1.573.15 2.375.49v-1.009c-.8-.294-1.6-.45-2.386-.435-.587.008-1.02.1-1.44.186-.36.08-.732.16-1.245.2-.746.06-1.5 0-2.246-.16v.97c.768.15 1.545.2 2.314.15z"/><path d="m71.284 78.568c2.427-.45 4.518-.188 6.23.77v-.78l-.232-.13c-.427-.256-1.547-.912-3.553-.96-.08 0-.14-.007-.22-.007-.17 0-.34.02-.51.03-.51.03-1.04.08-1.58.18-1.38.26-3.04.17-4.9-.25l-.32-.07v-17.521c-.28-.066-.55-.14-.84-.22v18.366c2.33.69 4.32.888 5.9.592z"/><path d="m71.284 80.277c2.425-.45 4.52-.195 6.23.76v-.764l-.11-.066-.122-.072c-1.57-.936-3.538-1.194-5.85-.764-1.78.33-3.995.1-6.583-.7l-.29-.09v-18.231c-.27-.088-.54-.173-.82-.27v19.07c3.05 1.115 5.59 1.496 7.54 1.134zm13.933-8.04c.373.077.796.165 1.372.207.77.056 1.54.003 2.31-.144v-.97c-.75.16-1.5.215-2.25.163-.51-.037-.89-.116-1.25-.19-.42-.09-.85-.18-1.44-.188-.79-.01-1.59.142-2.39.434v1.01c.8-.34 1.6-.52 2.37-.5.49 0 .84.08 1.25.16z"/><path d="m86.314 78.568c1.586.296 3.57.097 5.906-.592v-18.366c-.283.08-.56.153-.835.22v17.51l-.318.072c-1.867.422-3.526.506-4.902.25-.544-.1-1.068-.15-1.58-.177-.168-.01-.34-.024-.505-.024-.075 0-.14.01-.213.01-2.005.05-3.125.71-3.553.96l-.23.13v.78c1.712-.95 3.803-1.22 6.23-.77z"/><path d="m85.216 69.648c.373.08.796.168 1.373.21.76.055 1.54.003 2.31-.144v-.97c-.75.16-1.5.215-2.25.16-.51-.036-.89-.114-1.25-.19-.42-.087-.85-.178-1.44-.186-.79-.023-1.59.14-2.39.433v1.02c.8-.34 1.6-.52 2.37-.49.49.01.84.08 1.25.17z"/><path d="m56.882 126.945c5.252-1.11 21.69-5.447 32.787-17.93 6.97-7.846 10.64-17.55 10.89-28.85v-38.88h-43.679v85.66zm15.53-38.78-1.68-.884-1.68.89.322-1.87-1.36-1.32 1.88-.27.84-1.7.84 1.71 1.877.27-1.35 1.32.32 1.87zm16.133 0-1.68-.884-1.68.89.32-1.87-1.358-1.32 1.878-.27.84-1.7.84 1.71 1.878.27-1.36 1.33.322 1.87zm-9.276-12.37v-16.125c.43-.322.9-.6 1.39-.837.71-.32 1.84-.68 3.42-.68.71 0 1.46.073 2.23.216.3.05.62.09.95.11 1.06.06 2.28-.06 3.62-.36l.49-.11v.97c.36-.09.74-.2 1.12-.31l.53-.17v.98c.35-.12.71-.25 1.08-.38l.55-.21v20.811l-.27.097c-3.31 1.242-6.08 1.67-8.24 1.27-2.25-.42-4.17-.18-5.72.695h-1.17v-5.98zm.37 11.2 1.87.272-1.36 1.326.32 1.87-1.68-.884-1.68.88.32-1.87-1.36-1.33 1.88-.27.84-1.71.84 1.7zm-16.709-28.092.55.206c.37.13.73.26 1.083.38v-.98l.528.16c.39.11.76.22 1.13.31v-.979l.5.112c1.34.3 2.56.42 3.62.356.34-.02.66-.055.96-.11.77-.144 1.53-.217 2.24-.217 1.58 0 2.71.36 3.42.68.49.24.96.52 1.4.84v22.11h-1.18c-1.55-.88-3.47-1.11-5.72-.7-2.15.41-4.93-.02-8.24-1.27l-.26-.09v-20.811z"/><path d="m86.314 80.277c1.952.36 4.486-.02 7.54-1.133v-19.072c-.28.1-.55.184-.82.27v18.238l-.287.09c-2.587.795-4.802 1.03-6.582.7-2.312-.43-4.28-.17-5.85.765-.05.03-.09.055-.122.072l-.11.066v.764c1.712-.955 3.806-1.21 6.23-.76z"/><path d="m85.217 74.824c.373.078.796.166 1.372.208.77.056 1.54.003 2.31-.144v-.97c-.75.16-1.5.215-2.25.163-.51-.03-.89-.11-1.25-.19-.42-.08-.85-.18-1.44-.18-.79-.01-1.59.14-2.39.44v1.02c.8-.34 1.6-.51 2.37-.49.49.01.84.08 1.25.17zm0-10.35c.373.078.796.167 1.372.208.77.057 1.54.004 2.31-.143v-.98c-.75.16-1.5.21-2.25.16-.51-.04-.89-.12-1.25-.19-.42-.09-.85-.18-1.44-.19-.79-.03-1.59.14-2.39.43v1.02c.8-.34 1.6-.52 2.37-.5.49 0 .84.08 1.25.16zm0-2.59c.372.08.795.17 1.372.21.76.055 1.54.004 2.31-.144v-.97c-.75.16-1.5.215-2.25.162-.51-.037-.89-.115-1.25-.19-.42-.088-.85-.18-1.44-.187-.79-.016-1.59.14-2.39.434v1.01c.8-.34 1.6-.52 2.37-.5.49 0 .84.08 1.25.16zm0 5.178c.373.078.795.167 1.37.208.77.056 1.547.004 2.315-.143v-.97c-.746.16-1.5.216-2.246.16-.51-.036-.884-.114-1.245-.19-.41-.087-.85-.178-1.43-.186-.78-.02-1.58.14-2.38.44v1.02c.81-.33 1.61-.51 2.38-.49.5.01.85.08 1.26.17z"/><g><path d="m233.848 88.973 2.44-.732v-41c0-9.92 0-10.33 3.168-10.65l2.928-.24v-1.751h-19.75v1.75l2.922.242c3.17.323 3.17.73 3.17 10.654v33.03c-1.217 1.466-6.257 6.51-14.713 6.51-12.6 0-14.55-7.73-14.55-19.362v-20.184c0-9.924 0-10.33 3.17-10.655l2.924-.246v-1.75h-19.754v1.74l2.928.24c3.17.32 3.17.73 3.17 10.65v21.481c0 11.063 1.39 20.745 18.21 20.745 10.82 0 17.56-5.12 18.7-5.12 1.22-.006 1.87 1.135 3.01 2.27l2.04 2.36zm21.777-.735h22.52v-1.75l-2.93-.242c-4.55-.328-4.55-.73-4.55-10.66v-38.724h4.226c11.47 0 11.63 1.22 13.42 10.657h1.95c0-.33-.4-11.15-.73-12.94h-45.28c-.33 1.79-.73 12.6-.73 12.93h1.95c1.79-9.44 1.95-10.66 13.41-10.66h4.23v38.73c0 9.93 0 10.33-4.47 10.66l-3.01.24v1.75zm84.678-10.7c0-7.915 0-8.32 1.543-8.648l2.928-.244v-1.748h-20.65v1.748l2.928.244c5.686.328 5.686.733 5.686 10.688v6.14c-2.842.73-6.58 1.058-9.506 1.058-15.934 0-23.006-12.88-23.006-26.744 0-15.203 8.373-23.98 21.7-23.98 13.905 0 14.96 9.914 15.776 13.168l2.193-.486c-.355-4.01-.787-8.564-1.3-12.035-2.112-1.3-8.29-3.34-16.585-3.34-12.846 0-30.322 6.5-30.322 28.21 0 20.71 14.633 27.88 30.977 27.88 8.693 0 14.92-2.34 17.795-3.24 0 0-.157-6.24-.157-8.69m9.467 10.7h37.236c1.062-4.4 1.967-8.45 2.68-13.5l-2.03-.33c-1.626 6.67-2.438 11.55-15.388 11.55-2.918 0-5.916-.49-8.836-1.06v-23.4h7.215c6.326 0 7.787.08 8.273 3.41l.408 2.76h2.145v-14.609h-2.145l-.408 2.765c-.486 3.332-1.947 3.414-8.273 3.414h-7.215v-22.359h6.73c11.475 0 11.637 1.218 13.43 9.92l1.95-.326c0-.73-.41-10.08-.733-11.868h-35.04v1.747l2.93.245c3.16.324 3.16.734 3.16 10.665v28.327c0 9.94 0 10.348-3.17 10.676l-2.93.242v1.75zm59.95-50.32c1.62-.33 3.33-.65 5.036-.65 6.342 0 12.594 2.93 12.594 12.44 0 9.18-6.174 12.84-13.002 12.84h-4.63v-24.619zm-13.663 50.32h19.672v-1.75l-2.93-.24c-3.08-.33-3.08-.74-3.08-10.67v-10.739h3c1.7 0 3.73 0 5.04 1.06 1.05.896 2.92 3.993 5.03 7.98l3.25 6.27c2.44 4.48 6.17 8.1 11.54 8.1h6.26v-1.75c-1.79 0-3.26-.316-4.07-.807-2.03-1.144-5.61-5.95-9.02-12.06-2.2-3.91-4.89-9.122-6.11-11.396 4.47-2.11 11.22-6.59 11.22-14.165 0-12.36-10.89-13.47-18.61-13.47h-21.22v1.746l2.93.246c3.17.324 3.17.734 3.17 10.665v28.33c0 9.93 0 10.34-3.17 10.66l-2.93.24v1.75zm65.508-33.33c-4.39-2.6-7.885-5.2-7.885-10 0-5.45 4.143-8.86 8.863-8.86 9.18 0 10.484 7.07 11.293 11.13h2.037c-.193-2.37-.393-8.33-.818-11.22-2.11-1.3-6.174-2.6-11.215-2.6-8.617 0-16.908 4.14-16.908 14.06 0 6.09 4.31 11.13 8.94 13.65l5.204 2.84c6.344 2.84 11.3 6.9 11.3 12.84 0 6.34-4.147 9.99-9.755 9.99-11.13 0-14.14-9.67-15.03-15.53l-2.6.65c.92 5.57 1.83 11.23 2.61 14.31 2.52 1.54 6.42 3.25 12.76 3.25 8.62 0 18.78-4.23 18.78-15.2 0-9.76-6.65-13.17-13.08-16.83l-4.46-2.52z"/><path d="m146.354 57.28c2.49.13 5.16-.072 7.652-.072 9.623 0 15.506-5.166 15.506-14.78 0-10.466-5.966-16.885-16.634-16.885-2.198 0-4.365.426-6.51.854zm20.76-.014c.926 5.152 8.104 18.383 10.858 23.3 6.227 11.483 22.175 34.71 34.115 33.96l1.378.01-.013 1.883-2.096.07c-16.87.66-31.945-18.14-40.715-33.21-3.56-6.13-7.02-13.25-10.1-19.63-.76-1.65-1.73-2.7-2.8-3.36-1.66-.89-3.83-.87-5.62-.87-1.04-.01-4.13 0-5.74 0l-.01 13.54c0 2.49-.19 8.66.49 11.08.54 1.91 1.7 2.15 3.61 2.36l3.31.27v1.53h-23.081v-1.53l3.308-.27c1.96-.21 3.146-.45 3.693-2.36.69-2.41.51-8.61.51-11.09v-34.819c0-2.47.19-8.677-.5-11.077-.55-1.918-1.73-2.16-3.69-2.363l-3.31-.27v-1.534h15.71c13.83.002 32.5-1.968 32.5 17.48 0 7.87-5.35 12.994-11.89 16.206.02.323.1.694.1.694"/></g></g><path d="m239.343 118.37-.07.103c-.87-.03-1.757-.03-2.627-.03-.044 1.386-.03 2.77-.03 4.155 0 1.543.016 3.084.1 4.627l-.084.1c-.542 0-1.1.014-1.642.043l-.072-.102c.086-1.998.086-3.996.086-5.994 0-.943-.014-1.9-.043-2.842-.88.03-1.77.043-2.65.07l-.08-.1c.03-.357.05-.7.05-1.057l.09-.1c2.33 0 4.67 0 7-.043l.07.1c-.04.358-.05.716-.07 1.07zm14.42 8.954c-.544 0-1.07.014-1.614.043l-.09-.102c.04-1.24.07-2.498.07-3.74v-1.04c-.45-.03-.9-.03-1.34-.03-1.12 0-2.22 0-3.33.043v1.242c0 1.156.05 2.326.11 3.484l-.09.1c-.54 0-1.07.014-1.61.043l-.09-.102c.05-1.213.08-2.44.08-3.654 0-2.06.04-4.21-.1-6.26l.08-.1c.53-.01 1.07-.02 1.6-.04l.07.1c-.04 1.19-.06 2.36-.06 3.54v.43c.57.03 1.12.03 1.7.03h.85c.71 0 1.41-.01 2.11-.03-.06-1.31-.03-2.61-.12-3.92l.08-.1c.53-.01 1.04-.01 1.57-.04l.08.1c-.04 1.46-.07 2.92-.07 4.37v1.46c0 1.37.03 2.74.14 4.1l-.09.1zm13.605-.1-.1.1c-1.986 0-3.955.015-5.94.044l-.07-.102c.085-2.068.07-4.14.07-6.195 0-1.24-.013-2.48-.1-3.72l.1-.1c2-.01 3.997-.02 5.997-.04l.072.1c-.045.37-.072.75-.086 1.12l-.1.1c-1.43-.04-2.84-.07-4.27-.07-.01 1.02-.02 2.03-.02 3.04h1.49c.85 0 1.7-.01 2.55-.04l.09.1c-.04.37-.07.74-.08 1.11l-.09.11c-1.04-.03-2.08-.04-3.14-.04h-.8c-.01.67-.03 1.35-.03 2.02 0 .47.02.93.02 1.4h.79c1.23 0 2.46-.03 3.67-.07l.08.1c-.02.36-.04.72-.05 1.07zm16.597.313c-.9 0-2-.2-2.8-.627l-.042-.102c.043-.44.07-.87.1-1.312l.158-.057c.76.58 1.53.82 2.49.82 1.05 0 2.12-.42 2.12-1.62 0-2.2-4.85-1.55-4.85-4.87 0-1.96 1.72-2.76 3.46-2.76.9 0 1.72.15 2.56.47l.09.1c-.05.41-.08.84-.11 1.25l-.13.07c-.77-.43-1.47-.68-2.35-.68-.87 0-1.93.35-1.93 1.4 0 2.08 4.97 1.41 4.97 4.84 0 2.1-1.84 3.04-3.69 3.04zm16.715-9.167-.07.103c-.87-.03-1.756-.03-2.627-.03-.043 1.386-.03 2.77-.03 4.155 0 1.543.017 3.084.1 4.627l-.083.1c-.543 0-1.1.014-1.643.043l-.072-.102c.088-1.998.088-3.996.088-5.994 0-.943-.016-1.9-.045-2.842-.883.03-1.77.043-2.654.07l-.086-.1c.03-.357.043-.7.043-1.057l.09-.1c2.33 0 4.67 0 7-.043l.08.1c-.04.358-.05.716-.07 1.07zm13.246 8.94c-.557 0-1.1.028-1.656.042l-.1-.1c-.27-.998-.557-1.998-.842-2.998-.6-.014-1.186-.027-1.785-.027-.586 0-1.186.014-1.77.027-.3.97-.57 1.957-.843 2.94l-.1.1c-.486.015-.984.015-1.47.044l-.058-.1c.63-1.857 1.27-3.713 1.912-5.568.5-1.44 1-2.855 1.414-4.326l.113-.1c.69-.014 1.36-.014 2.05-.043l.1.1c.97 3.32 2.04 6.6 3.1 9.9l-.05.12zm-4.297-9.023-1.5 4.81c.47 0 .95.015 1.42.015.48 0 .95-.014 1.44-.014l-1.37-4.81zm16.08.083-.07.103c-.87-.03-1.76-.03-2.63-.03-.05 1.386-.03 2.77-.03 4.155 0 1.543.01 3.084.1 4.627l-.09.1c-.55 0-1.1.014-1.65.043l-.07-.102c.08-1.998.08-3.996.08-5.994 0-.943-.02-1.9-.05-2.842-.89.03-1.77.043-2.66.07l-.09-.1c.03-.357.04-.7.04-1.057l.08-.1c2.33 0 4.67 0 6.99-.043l.07.1c-.05.358-.06.716-.07 1.07zm12.56 8.855-.1.1c-1.99 0-3.96.014-5.94.043l-.07-.102c.08-2.068.07-4.14.07-6.195 0-1.24-.02-2.48-.1-3.72l.1-.1c2-.01 4-.02 5.99-.04l.07.1c-.05.37-.08.75-.09 1.12l-.1.1c-1.43-.04-2.84-.07-4.27-.07-.02 1.02-.03 2.03-.03 3.04h1.49c.84 0 1.69-.01 2.54-.04l.08.1c-.05.37-.07.74-.09 1.11l-.09.11c-1.04-.03-2.09-.04-3.14-.04h-.8c-.02.67-.03 1.35-.03 2.02 0 .47.01.93.01 1.4h.78c1.23 0 2.46-.03 3.67-.07l.07.1c-.03.36-.04.72-.06 1.07zm21.85-7.467v1.885c0 .7.02 1.383.02 2.084 0 2.484-1.16 3.81-3.76 3.81-1.69 0-3.29-.612-3.77-2.368-.15-.52-.15-1.06-.15-1.59 0-2.09.03-4.17-.04-6.24l.08-.1c.54-.02 1.07-.02 1.61-.05l.07.1c-.07 1.81-.06 3.62-.06 5.44 0 1.07-.13 2.6.94 3.24.41.24.9.35 1.37.35.57 0 1.15-.15 1.58-.52.86-.76.74-2.07.74-3.11 0-1.79 0-3.59-.1-5.37l.07-.1c.44-.02.87-.02 1.31-.05l.08.1c-.02.81-.04 1.64-.04 2.45zm15.44 7.566c-.59 0-1.17.014-1.76.043l-.11-.102c-.83-1.512-1.7-2.996-2.55-4.496l-2.25-4.03.14 4.89c.03 1.2.07 2.38.13 3.58l-.07.1c-.46 0-.93.01-1.39.04l-.09-.1c.08-1.89.07-3.77.07-5.65 0-1.4.01-2.89-.09-4.27l.07-.1c.61-.02 1.23-.02 1.84-.05l.16.1c1.51 2.8 3.1 5.55 4.67 8.32-.07-2.76-.1-5.53-.24-8.28l.08-.1c.45 0 .9-.02 1.35-.05l.08.1c0 2.1-.05 4.18-.05 6.27 0 1.22.01 2.44.04 3.65l-.08.1zm9.21 0c-.53 0-1.06.014-1.59.043l-.09-.102c.06-.984.07-1.97.07-2.955v-1.584c0-1.8-.03-3.584-.12-5.383l.09-.1c.52-.014 1.05-.014 1.58-.057l.08.113c-.03 1.51-.07 3.02-.07 4.54 0 1.8.03 3.58.13 5.38l-.1.1zm13.27-5.054c-.52 1.656-1.09 3.283-1.56 4.955l-.09.1c-.69 0-1.39.014-2.07.043l-.11-.102c-.13-.412-.23-.842-.36-1.256-.22-.756-.45-1.498-.67-2.256-.64-2.14-1.3-4.283-1.97-6.41l.08-.1c.54-.014 1.09-.014 1.64-.043l.1.1c.77 3.02 1.61 6.02 2.44 9.01l1.27-4.48c.43-1.48.8-2.99 1.23-4.48l.08-.1c.47-.01.95-.01 1.43-.04l.07.1c-.56 1.64-1.02 3.31-1.55 4.97zm14.05 4.955-.1.1c-1.99 0-3.96.014-5.94.043l-.07-.102c.08-2.068.07-4.14.07-6.195 0-1.24-.02-2.48-.1-3.72l.1-.1c2-.01 3.99-.02 5.99-.04l.07.1c-.05.37-.07.75-.09 1.12l-.1.1c-1.43-.04-2.84-.07-4.27-.07-.02 1.02-.03 2.03-.03 3.04h1.48c.84 0 1.7-.01 2.54-.04l.08.1c-.04.37-.07.74-.09 1.11l-.09.11c-1.04-.03-2.08-.04-3.14-.04h-.8c-.02.67-.03 1.35-.03 2.02 0 .47.01.93.01 1.4h.78c1.22 0 2.45-.03 3.66-.07l.07.1c-.03.36-.04.72-.06 1.07zm14.37.113c-.59 0-1.17.014-1.76.057l-.1-.057c-.46-.812-.97-1.57-1.49-2.342-.44-.67-.86-1.326-1.33-1.97-.35 0-.7.015-1.04.015 0 1.4.04 2.79.11 4.19l-.09.1c-.53 0-1.04.02-1.57.05l-.09-.1c.04-1.39.05-2.78.05-4.18 0-1.91-.03-3.82-.14-5.74l.09-.1c.6 0 1.18-.03 1.78-.03h.87c1.95 0 4.04.3 4.04 2.76 0 1.52-1.05 2.44-2.43 2.82 1.04 1.47 2.04 2.97 3.14 4.41l-.08.15zm-2.66-8.395c-.54-.586-1.42-.572-2.16-.572-.3 0-.62.02-.92.03-.01.37-.01.75-.01 1.1v1.23c0 .39 0 .76.01 1.15.22 0 .41.02.63.02 1.2 0 2.87-.21 2.87-1.78 0-.41-.14-.84-.43-1.15zm11.65 8.594c-.9 0-2-.2-2.8-.627l-.04-.102c.04-.44.07-.87.1-1.312l.15-.057c.75.58 1.52.82 2.48.82 1.04 0 2.11-.42 2.11-1.62 0-2.2-4.86-1.55-4.86-4.87 0-1.96 1.72-2.76 3.46-2.76.9 0 1.71.15 2.56.47l.08.1c-.06.41-.09.84-.12 1.25l-.13.07c-.77-.43-1.47-.68-2.36-.68-.87 0-1.93.35-1.93 1.4 0 2.08 4.96 1.41 4.96 4.84 0 2.1-1.85 3.04-3.7 3.04zm12.36-.213c-.53 0-1.06.014-1.59.043l-.09-.102c.05-.984.07-1.97.07-2.955v-1.584c0-1.8-.03-3.584-.12-5.383l.08-.1c.53-.014 1.05-.014 1.58-.057l.09.113c-.03 1.51-.08 3.02-.08 4.54 0 1.8.03 3.58.13 5.38l-.1.1zm13.57-8.954-.07.103c-.87-.03-1.76-.03-2.63-.03-.05 1.386-.03 2.77-.03 4.155 0 1.543.01 3.084.1 4.627l-.09.1c-.55 0-1.1.014-1.64.043l-.08-.102c.09-1.998.09-3.996.09-5.994 0-.943-.02-1.9-.05-2.842-.88.03-1.77.043-2.65.07l-.09-.1c.02-.357.04-.7.04-1.057l.08-.1c2.32 0 4.66 0 6.99-.043l.07.1c-.05.358-.06.716-.08 1.07zm10.67 4.7c-.02.355-.02.713-.02 1.07 0 1.027 0 2.055.07 3.084l-.07.1c-.53 0-1.06.014-1.59.027l-.07-.1c.02-.87.04-1.74.04-2.61v-1.45c-1.02-1.95-2.05-3.88-3.15-5.79l.07-.14c.56-.02 1.1-.04 1.66-.1l.1.07c.43.84.81 1.7 1.23 2.54.32.67.69 1.33 1.01 2.02.8-1.45 1.55-2.94 2.27-4.44l.11-.08c.47 0 .93-.01 1.4-.04l.08.12c-1.09 1.9-2.2 3.8-3.17 5.76zm-234.49 22.02c-3.11 0-4.63-2.227-4.63-5.168 0-2.97 1.48-5.338 4.69-5.338 3.17 0 4.59 2.44 4.59 5.338 0 2.957-1.51 5.168-4.65 5.168zm.03-9.322c-2.3 0-2.94 2.143-2.94 4.04 0 1.886.68 4.083 2.94 4.083 2.27 0 2.92-2.18 2.92-4.08 0-1.95-.59-4.04-2.93-4.04zm17.54.214-.09.1c-1.34-.057-2.67-.057-4.01-.07-.02 1.07-.03 2.14-.03 3.21 1.18-.013 2.35-.026 3.54-.07l.07.087c-.03.38-.06.75-.1 1.14l-.09.1c-1.13-.05-2.27-.05-3.4-.06 0 .27-.02.53-.02.8 0 1.18.01 2.37.1 3.55l-.08.1c-.56 0-1.1.01-1.66.04l-.08-.1c.06-1.4.09-2.8.09-4.2v-1.56c0-1.39-.03-2.79-.09-4.17l.07-.1c1.91 0 3.84 0 5.75-.05l.07.1c-.05.37-.06.75-.09 1.12zm21.27 8.895c-.59 0-1.17.014-1.76.043l-.12-.1c-.83-1.514-1.7-2.998-2.54-4.498l-2.26-4.025.14 4.896c.03 1.2.07 2.385.13 3.584l-.07.1c-.46 0-.93.014-1.39.043l-.09-.1c.08-1.885.07-3.77.07-5.654 0-1.398.01-2.885-.09-4.27l.07-.1c.61-.014 1.23-.014 1.84-.043l.15.1c1.51 2.8 3.1 5.555 4.67 8.324-.07-2.756-.1-5.525-.25-8.28l.08-.1c.45 0 .9-.015 1.35-.044l.09.1c0 2.1-.04 4.184-.04 6.27 0 1.227.01 2.44.04 3.654l-.07.1zm13.63-.1-.1.1c-1.99 0-3.96.014-5.94.043l-.07-.1c.08-2.07.07-4.14.07-6.197 0-1.242-.02-2.482-.1-3.727l.1-.1c2-.014 4-.027 5.99-.043l.07.1c-.05.37-.07.742-.09 1.115l-.1.1c-1.43-.043-2.84-.072-4.27-.072-.02 1.014-.03 2.027-.03 3.04h1.48c.84 0 1.7-.013 2.54-.042l.08.102c-.05.37-.08.74-.09 1.11l-.09.103c-1.05-.03-2.09-.05-3.14-.05h-.8c-.02.67-.03 1.34-.03 2.01 0 .47.01.93.01 1.4h.79c1.23 0 2.45-.03 3.67-.07l.07.1c-.03.35-.04.71-.06 1.07zm17.3-5.283c-.29 1.285-.62 2.57-.89 3.855l-.3 1.42-.1.1c-.69 0-1.37.01-2.06.04l-.1-.1c-.16-.97-.35-1.93-.53-2.89l-1.16-6.15c-.62 2.99-1.22 5.99-1.8 8.99l-.09.1c-.69 0-1.39.01-2.07.04l-.1-.1c-.33-1.68-.71-3.35-1.09-5.02-.36-1.65-.73-3.29-1.13-4.92l.07-.1c.54-.01 1.08-.01 1.63-.04l.08.1c.51 3.01 1.12 6.02 1.7 9.02.55-3 1.14-5.98 1.67-8.98l.08-.1c.76-.02 1.51-.02 2.27-.04l.09.1c.14 1.01.33 2.02.51 3.04l1.13 6.01 1.11-5.64c.23-1.13.44-2.24.61-3.37l.08-.1c.47-.02.93-.02 1.4-.05l.07.1c-.49 1.53-.79 3.08-1.13 4.64zm17.51-1.084c0 1.24.03 2.47.03 3.71 0 1.8-.73 2.84-2.67 2.84-.36 0-.7-.04-1.06-.112l-.08-.113v-1.1l.08-.086c.27.08.53.12.81.12.65 0 1.02-.3 1.21-.95.08-.29.07-1.54.07-1.89v-1.06c0-1.63-.03-3.27-.1-4.9l.08-.1c.53 0 1.07-.02 1.6-.05l.07.1c-.03 1.18-.07 2.37-.07 3.55zm13.53 6.367-.1.1c-1.99 0-3.95.014-5.94.043l-.07-.1c.09-2.07.07-4.14.07-6.197 0-1.242-.01-2.482-.1-3.727l.1-.1c2-.014 3.99-.027 5.99-.043l.07.1c-.05.37-.07.742-.09 1.115l-.1.1c-1.43-.043-2.84-.072-4.27-.072-.02 1.014-.03 2.027-.03 3.04h1.48c.84 0 1.7-.013 2.54-.042l.09.102c-.05.37-.07.74-.09 1.11l-.08.103c-1.04-.03-2.09-.05-3.14-.05h-.8c-.02.67-.03 1.34-.03 2.01 0 .47.01.93.01 1.4h.79c1.22 0 2.45-.03 3.66-.07l.07.1c-.028.35-.04.71-.05 1.07zm14.37.113c-.59 0-1.17.015-1.76.058l-.1-.057c-.46-.81-.97-1.57-1.49-2.34-.45-.67-.86-1.32-1.33-1.97-.34 0-.7.02-1.04.02 0 1.4.04 2.79.11 4.19l-.09.1c-.53 0-1.04.02-1.57.05l-.09-.1c.04-1.4.06-2.78.06-4.18 0-1.91-.03-3.83-.14-5.74l.08-.1c.6 0 1.18-.03 1.78-.03h.87c1.954 0 4.04.3 4.04 2.76 0 1.52-1.04 2.44-2.43 2.81 1.046 1.47 2.04 2.97 3.14 4.41l-.07.14zm-2.66-8.394c-.54-.586-1.41-.572-2.16-.572-.3 0-.62.016-.92.03-.02.37-.02.74-.02 1.1v1.228c0 .385 0 .756.02 1.143.21 0 .41.014.63.014 1.19 0 2.86-.22 2.86-1.79 0-.42-.14-.85-.43-1.16zm11.65 8.594c-.9 0-2-.2-2.8-.627l-.04-.102c.04-.44.07-.86.1-1.31l.15-.05c.75.59 1.52.83 2.48.83 1.04 0 2.11-.41 2.11-1.61 0-2.2-4.86-1.54-4.86-4.86 0-1.95 1.71-2.75 3.45-2.75.9 0 1.71.16 2.55.47l.08.1c-.06.42-.09.85-.12 1.26l-.13.08c-.77-.43-1.47-.67-2.358-.67-.87 0-1.93.36-1.93 1.4 0 2.09 4.97 1.41 4.97 4.84 0 2.1-1.84 3.04-3.7 3.04zm16.79-.313-.1.1c-1.99 0-3.96.014-5.94.043l-.07-.1c.08-2.07.07-4.14.07-6.197 0-1.242-.02-2.482-.1-3.727l.1-.1c2-.014 3.99-.027 5.99-.043l.07.1c-.04.37-.07.742-.09 1.115l-.1.1c-1.43-.043-2.84-.072-4.27-.072-.02 1.014-.03 2.027-.03 3.04h1.49c.84 0 1.69-.013 2.54-.042l.08.102c-.04.37-.07.74-.09 1.11l-.09.103c-1.04-.03-2.088-.05-3.14-.05h-.806c-.015.67-.028 1.34-.028 2.01 0 .47.01.93.01 1.4h.785c1.23 0 2.45-.03 3.67-.07l.07.1c-.03.35-.04.71-.06 1.07zm10.9-4.154c-.02.355-.02.713-.02 1.07 0 1.027 0 2.055.07 3.084l-.07.1c-.53 0-1.06.014-1.58.027l-.08-.1c.03-.87.05-1.742.05-2.61v-1.458c-1.02-1.955-2.04-3.883-3.14-5.797l.07-.15c.55-.03 1.1-.05 1.65-.1l.1.07c.43.84.82 1.7 1.23 2.54.33.67.7 1.33 1.02 2.01.8-1.46 1.55-2.94 2.27-4.44l.11-.09c.47 0 .93-.02 1.4-.05l.08.11c-1.09 1.9-2.2 3.8-3.17 5.75z" fill="#6a757c"/></svg>