<svg width="79" height="34" viewBox="0 0 79 34" fill="none" xmlns="http://www.w3.org/2000/svg">
<path d="M26.2844 7.14023L18.2384 20.643L18.2384 29.7261C19.1646 31.9117 21.5055 32.2028 23.749 32.3002L23.749 33.563L7.99749 33.563L7.99749 32.3002C10.2408 32.2028 12.9716 31.8632 13.703 30.4063L13.703 21.0315L5.51041 7.23717C4.09647 4.90572 2.73103 4.12894 -1.24791e-10 3.93443L0 2.67169L13.7032 2.67169L13.7032 3.93443C11.1185 4.08 10.2896 4.56612 9.55821 5.14918L17.1656 18.2629L24.6267 5.19733C23.8465 4.61459 22.8225 4.08 20.2379 3.93459L20.2379 2.67184L31.9414 2.67184L31.9414 3.93459C29.308 4.03184 27.65 4.90572 26.2844 7.14023ZM42.2794 34.0001C39.6463 34.0001 38.3782 32.2028 38.2807 30.9404C36.6225 32.6888 34.4772 34.0001 32.429 34.0001C29.7956 34.0001 27.5522 32.3972 27.5522 29.6292C27.5522 28.2687 27.8936 26.8601 28.5765 25.7432L38.2807 22.246L38.2807 18.6516C38.2807 16.466 37.2566 14.3774 35.0621 14.3774C33.7455 14.3774 32.4775 15.9799 32.3802 18.4574L27.991 19.1856L27.991 18.7004C29.4539 14.3285 34.2819 12.6289 36.6223 12.6289C41.0601 12.6289 42.6693 14.96 42.6207 18.5543L42.4745 28.7542C42.4257 30.7457 43.4983 31.2314 44.4738 31.2314C45.2539 31.2314 46.0341 30.7457 46.9609 29.823L46.9609 31.2314C45.8883 32.4946 43.9866 34.0001 42.2794 34.0001ZM32.5265 26.0831C32.3314 26.8601 32.1852 27.5401 32.1852 28.6088C32.1852 30.0657 33.0143 31.5227 34.6233 31.5227C36.0862 31.5227 36.9153 31.0375 38.232 30.0172L38.2807 23.4598C37.0129 24.0427 33.8921 25.4031 32.5265 26.0831ZM47.4 33.563L47.4 32.4456C49.5943 32.3001 50.2279 31.8144 50.6186 30.9882L50.6186 5.82839C50.6186 4.17694 50.3745 3.49725 47.0097 3.20565L47.0097 2.23435L55.934 1.7741e-09L56.2263 0.826197L54.8124 2.57459L54.8124 30.9884C55.3 31.9601 56.2263 32.3002 58.2258 32.4458L58.2258 33.5631L47.4 33.5631V33.563ZM69.9292 33.9515C64.8091 33.9515 60.8589 29.9201 60.8589 24.2858C60.8589 17.3885 65.1018 12.677 71.1 12.677C75.9275 12.677 78.6097 15.3976 78.6097 19.7201L78.6097 20.5943L65.4431 20.4974C65.3458 21.0315 65.2965 21.9062 65.2965 22.9744C65.2965 27.9286 68.4176 31.1829 72.5631 31.1829C75.0497 31.1829 76.3179 30.3085 78.2681 28.6572L78.9997 29.7741C76.2203 32.3002 73.9282 33.9515 69.9292 33.9515ZM70.3686 14.1832C67.9299 14.1832 66.2236 16.1258 65.6382 19.1856L74.2214 19.0886C74.2213 16.5143 72.6116 14.1832 70.3686 14.1832Z" fill="#5D5D5D"/>
</svg>
