<svg xmlns="http://www.w3.org/2000/svg" width="40" height="40">
  <path fill="#ff0" fill-rule="evenodd" stroke="#000" stroke-width="1.308" d="M1.77 2.597h36.461v34.806H1.77z"/>
  <path d="M20 6.265c-7.586 0-13.735 6.15-13.735 13.735 0 7.586 6.15 13.735 13.735 13.735 7.586 0 13.735-6.15 13.735-13.735 0-7.586-6.15-13.735-13.735-13.735zm-.363 8.422c3.131 0 5.676 2.522 5.676 5.624s-2.545 5.624-5.676 5.624c-3.13 0-5.675-2.522-5.675-5.624s2.544-5.624 5.675-5.624z" fill="#fff" stroke="#000" stroke-width=".91249392"/>
  <path d="M8.668 12.74l4.412 3.693c-1.491 2.292-1.282 5.388.141 7.703l-4.55 3.04c.6 1.093 2.678 3.149 3.757 3.723l3.47-4.054c2.255 1.296 5.086 1.236 7.49-.112l3.08 5.422c1.002-.394 4.209-3.062 4.807-4.442l-4.848-3.919c1.28-2.152 1.465-4.676.494-6.878l5.24-3.403c-.495-.876-2.738-3.26-4.146-4.17l-3.656 4.421c-2.218-1.57-5.335-1.808-7.873-.573l-3.191-4.724c-1.195.514-3.666 2.593-4.627 4.272zm7.19 3.04c2.444-2.17 6.01-1.903 8.033.374 2.024 2.278 1.876 5.856-.567 8.027-2.444 2.172-6.015 1.897-8.038-.38-2.024-2.277-1.87-5.849.573-8.02z"/>
</svg>
