<svg width="232" height="24" viewBox="0 0 232 24" fill="none" xmlns="http://www.w3.org/2000/svg">
<path fill-rule="evenodd" clip-rule="evenodd" d="M231.44 23.6H226.24L221.44 14.64H216.08V23.6H211.52V0.799971H222.88C228.08 0.799971 230.56 2.87997 230.56 7.67997C230.56 11.2 228.96 13.44 226.16 14.08L231.44 23.6ZM221.68 4.87997H216.08V10.64H221.68C224.4 10.64 225.76 10.08 225.76 7.75997C225.76 5.43997 224.4 4.87997 221.68 4.87997ZM193.12 21.6C190.88 19.76 189.76 16.72 189.76 12.64C189.76 4.55997 193.04 0.799971 200.08 0.799971H207.76V4.79997H200.24C196.96 4.79997 195.28 6.47997 195.04 10.08H207.76V14.08H195.04C195.04 18.16 196.64 19.68 200.24 19.68H207.76V23.68H200C197.28 23.6 195.28 23.36 193.12 21.6ZM182.16 23.6H177.44V4.79997H170.4V0.799971H189.28V4.79997H182.16V23.6ZM168.96 23.6L166.96 18.16H157.44L155.52 23.6H150.64L159.92 0.799971H164.8L174.08 23.6H168.96ZM162.16 5.35997L158.96 14.16H165.44L162.16 5.35997ZM141.2 23.6L136.56 6.55997L132.48 23.6H126.88L119.6 0.799971H124.56L129.6 18.32L133.84 0.799971H139.28L144.16 18.32L148.88 0.799971H153.6L146.88 23.6H141.2ZM102.32 21.6C100.08 19.76 98.96 16.72 98.96 12.64C98.96 4.55997 102.24 0.799971 109.28 0.799971H116.96V4.79997H109.44C106.16 4.79997 104.48 6.47997 104.24 10.08H116.88V14.08H104.16C104.16 18.16 105.76 19.68 109.36 19.68H116.88V23.68H109.12C106.48 23.6 104.4 23.36 102.32 21.6ZM79.36 21.6C77.12 19.76 76 16.72 76 12.64C76 4.55997 79.28 0.799971 86.32 0.799971H96.24V4.71997H86.32C82.64 4.71997 81.12 7.19997 81.12 12.4C81.12 17.6 82.56 19.52 86.32 19.52H91.52V14.16H85.36V10.16H96.24V23.68H86.32C83.6 23.6 81.52 23.44 79.28 21.6H79.36ZM63.52 23.6H53.36V0.799971H63.36C70.4 0.799971 73.68 4.55997 73.68 12.64C73.68 16.8 72.56 19.76 70.32 21.6C68.08 23.44 66.16 23.6 63.44 23.6H63.52ZM63.28 4.71997H57.92V19.6H63.28C67.36 19.6 68.64 17.76 68.64 12.16C68.64 6.55997 67.36 4.71997 63.28 4.71997ZM44.96 0.719971H49.76V23.52H44.96V0.719971ZM37.36 23.52L32.56 14.56H27.12V23.52H22.56V0.719971H33.92C39.12 0.719971 41.6 2.79997 41.6 7.59997C41.6 11.12 40 13.36 37.2 14L42.64 23.52H37.36ZM32.8 4.79997H27.2V10.56H32.8C35.52 10.56 36.88 9.99997 36.88 7.67997C36.88 5.35997 35.52 4.87997 32.72 4.87997L32.8 4.79997ZM12 23.52H0V0.719971H11.2C13.76 0.719971 15.6 0.959971 16.8 1.75997C18.465 3.02697 19.373 5.05197 19.21 7.13797C19.05 9.22397 17.84 11.085 16 12.08C18.128 12.89 19.465 15.01 19.28 17.28C19.36 21.68 16.96 23.6 12 23.6V23.52ZM11.28 4.79997H4.56V10.08H11.28C13.36 10.08 14.32 9.27997 14.32 7.43997C14.32 5.59997 13.36 4.87997 11.28 4.87997V4.79997ZM11.36 14.08H4.56V19.44H11.36C13.44 19.44 14.4 18.64 14.4 16.8C14.4 14.96 13.36 14.16 11.36 14.16V14.08Z" fill="#74777C"/>
</svg>
